<?xml version="1.0" standalone="no"?>
<!DOCTYPE svg PUBLIC "-//W3C//DTD SVG 1.1//EN" "http://www.w3.org/Graphics/SVG/1.1/DTD/svg11.dtd" >
<svg xmlns="http://www.w3.org/2000/svg">
<metadata>Generated by IcoMoon</metadata>
<defs>
<font id="icomoon" horiz-adv-x="1024">
<font-face units-per-em="1024" ascent="960" descent="-64" />
<missing-glyph horiz-adv-x="1024" />
<glyph unicode="&#x20;" horiz-adv-x="512" d="" />
<glyph unicode="&#xe900;" glyph-name="alarm" horiz-adv-x="936" d="M468.114-53.029c252.473 0 457.143 204.67 457.143 457.143s-204.67 457.143-457.143 457.143c-252.473 0-457.143-204.67-457.143-457.143s204.67-457.143 457.143-457.143v0zM468.114 5.486c-220.156 0-398.629 178.472-398.629 398.629s178.472 398.629 398.629 398.629c220.156 0 398.629-178.472 398.629-398.629s-178.472-398.629-398.629-398.629v0zM438.857 623.543v-232.034l208.842-197.367 40.191 42.528-199.68 188.709 9.162-21.264v219.429h-58.514zM431.543 908.8c0-2.993-4.322-7.314-7.314-7.314h87.771c-2.993 0-7.314 4.322-7.314 7.314h58.514c0 29.324-21.876 51.2-51.2 51.2h-87.771c-29.324 0-51.2-21.876-51.2-51.2h58.514zM438.857 930.743v-87.771h58.514v87.771h-58.514zM797.189 715.997l24.137 21.943-39.361 43.297-24.137-21.943 39.361-43.297z" />
<glyph unicode="&#xe901;" glyph-name="animetoimeme" horiz-adv-x="1152" d="M42.667 550.175h1066.667l-21.333 21.333v-74.105l21.333 21.333h-1066.667l21.333-21.333v74.105l-21.333-21.333zM42.667 592.842h-21.333v-116.772h1109.333v116.772h-1088zM1039.515 497.404v-222.316l21.333 21.333h-969.697l21.333-21.333v222.316h-42.667v-243.649h1012.364v243.649h-42.667zM163.879 253.754h72.727l-21.333 21.333v-296.421l21.333 21.333h-72.727l21.333-21.333v296.421l-21.333-21.333zM163.879 296.421h-21.333v-339.088h115.394v339.088h-94.061zM915.394 253.754h72.727l-21.333 21.333v-296.421l21.333 21.333h-72.727l21.333-21.333v296.421l-21.333-21.333zM915.394 296.421h-21.333v-339.088h115.394v339.088h-94.061zM188.183 733.593h121.15l-21.333 21.333v-158.715l21.333 21.333h-121.15l21.333-21.333v158.715l-21.333-21.333zM188.183 776.26h-21.333v-201.382h163.816v201.382h-142.483zM121.784 905.653l96.97-148.211 35.704 23.36-96.97 148.211-35.704-23.36zM239.515 867.93v-98.807h42.667v98.807h-42.667zM454.788 599.579h242.424v42.667h-242.424v-42.667zM454.788 673.684h242.424v42.667h-242.424v-42.667zM454.788 747.789h242.424v42.667h-242.424v-42.667zM675.879 769.123v-148.211h42.667v148.211h-42.667zM888.242 670.316v24.702l-21.333-21.333h145.455l-21.333 21.333v-24.702c0-29.234-23.1-52.772-51.394-52.772s-51.394 23.538-51.394 52.772v0zM845.576 670.316c0-52.621 42.022-95.439 94.061-95.439s94.061 42.818 94.061 95.439v46.035h-188.121v-46.035z" />
<glyph unicode="&#xe902;" glyph-name="block" horiz-adv-x="1006" d="M425.514 474.868l-83.584-45.714 2.57 0.545-325.837 26.891 1.918-8.51 229.503 133.109-2.583-0.608 179.919-11.429 0.58 9.124-181.303 11.516-243.309-141.117 341.728-28.202 84.787 46.372-4.387 8.022zM422.495-6.565l-80.574-44.286 2.522 0.554-325.837 22.857 2.025-8.484 229.503 137.143-2.679-0.635 175.403-12.857 0.668 9.118-176.843 12.963-243.236-145.349 341.699-23.97 81.753 44.934-4.404 8.012zM13.714 448v-480h9.143v480h-9.143zM350.885 425.143v-457.143h9.143v457.143h-9.143zM254.551 425.143v-320h9.143v320h-9.143zM753.921 795.413l-325.837 26.891 1.918-8.51 229.503 133.109-2.615-0.606 324.421-22.857-2.034 8.478-228.086-137.143 2.732 0.638zM753.169 786.301l1.469-0.121 241.757 145.363-340.263 23.973-243.324-141.125 340.361-28.089zM753.864-50.297l-325.837 22.857 2.025-8.484 229.503 137.143-2.721-0.632 325.837-26.891-1.918 8.51-229.503-133.109 2.613 0.606zM753.225-59.417l1.4-0.098 243.323 141.125-341.823 28.21-243.256-145.361 340.356-23.876zM977.059 928v-845.714h9.143v845.714h-9.143zM423.136 813.714v-845.714h9.143v845.714h-9.143zM760.307 790.857v-822.857h9.143v822.857h-9.143zM663.972 790.857v-685.714h9.143v685.714h-9.143z" />
<glyph unicode="&#xe903;" glyph-name="chart" horiz-adv-x="1006" d="M498.286 146.286v-201.143h9.143v201.143h-9.143zM408.916 148.149l-89.766-201.143 8.349-3.726 89.766 201.143-8.349 3.726zM588.449 144.423l89.766-201.143 8.349 3.726-89.766 201.143-8.349-3.726zM9.143 946.286h987.429l-4.571 4.571v-89.397l4.571 4.571h-987.429l4.571-4.571v89.397l-4.571-4.571zM9.143 955.429h-4.571v-98.54h996.571v98.54h-992zM9.143 253.46h987.429l-4.571 4.571v-89.397l4.571 4.571h-987.429l4.571-4.571v89.397l-4.571-4.571zM9.143 262.603h-4.571v-98.54h996.571v98.54h-992zM947.117 861.46v-603.429h9.143v603.429h-9.143zM58.597 258.032v603.429h-9.143v-603.429h9.143zM345.766 387.556c101.674 0 184.104 82.091 184.104 183.365s-82.43 183.365-184.104 183.365c-101.674 0-184.104-82.091-184.104-183.365s82.43-183.365 184.104-183.365v0zM345.766 396.698c-96.633 0-174.961 78.006-174.961 174.222s78.329 174.222 174.961 174.222c96.633 0 174.961-78.006 174.961-174.222s-78.329-174.222-174.961-174.222v0zM318.789 749.145l22.637-180.354 113.322-112.856 6.452 6.478-112.208 111.746 1.31-2.67-22.442 178.794-9.072-1.139zM259.965 412.201l89.766 156.444-7.93 4.55-89.766-156.444 7.93-4.55zM659.948 678.095h134.649v9.143h-134.649v-9.143zM659.948 588.698h134.649v9.143h-134.649v-9.143zM659.948 499.302h134.649v9.143h-134.649v-9.143z" />
<glyph unicode="&#xe904;" glyph-name="designsend" horiz-adv-x="967" d="M18.963 472.448l941.115 465.396-10.218 7.177-95.832-843.563 9.97 5.688-845.283 378.167 0.248-12.865zM12.658 485.197l-13.541-6.696 867.945-388.305 98.401 866.179-952.805-471.177zM559.136 232.36l-161.186-264.212 13.182-3.759 2.735 348.919-1.751-4.617 549.874 630.791-10.721 9.345-551.604-632.775-0.021-2.633-2.937-374.615 174.569 286.149-12.141 7.407z" />
<glyph unicode="&#xe905;" glyph-name="facebook" d="M1001.991 792.99c0 87.752-79.224 167.010-166.998 167.010h-667.994c-87.774 0-166.998-79.257-166.998-167.010v-667.972c0-87.752 79.224-167.010 167.010-167.010h333.986v378.53h-122.466v166.998h122.466v65.063c0 112.212 84.267 213.268 187.873 213.268h134.99v-166.998h-134.99c-14.774 0-32.008-17.936-32.008-44.8v-66.532h166.998v-166.998h-166.998v-378.53h178.132c87.774 0 166.998 79.257 166.998 167.010v667.972z" />
<glyph unicode="&#xe906;" horiz-adv-x="1129" d="M1066.146-52.489h-1005.223c-27.644 0-50.261 20.572-50.261 45.716v914.316c0 25.144 22.618 45.716 50.261 45.716h1005.223c27.644 0 50.261-20.572 50.261-45.716v-914.316c0-25.144-22.618-45.716-50.261-45.716v0z" />
<glyph unicode="&#xe907;" horiz-adv-x="1129" d="M123.749 861.827c0-6.312-5.626-11.429-12.565-11.429s-12.565 5.117-12.565 11.429c0 6.312 5.626 11.429 12.565 11.429s12.565-5.117 12.565-11.429z" />
<glyph unicode="&#xe908;" horiz-adv-x="1129" d="M224.272 861.827c0-6.312-5.626-11.429-12.565-11.429s-12.565 5.117-12.565 11.429c0 6.312 5.626 11.429 12.565 11.429s12.565-5.117 12.565-11.429z" />
<glyph unicode="&#xe909;" horiz-adv-x="1129" d="M324.794 861.827c0-6.312-5.626-11.429-12.565-11.429s-12.565 5.117-12.565 11.429c0 6.312 5.626 11.429 12.565 11.429s12.565-5.117 12.565-11.429z" />
<glyph unicode="&#xe90a;" horiz-adv-x="1129" d="M10.662 766.019h1105.745v8.752h-1105.745v-8.752z" />
<glyph unicode="&#xe90b;" horiz-adv-x="1129" d="M563.534 436.67c0 57.145 50.261 102.861 113.088 102.861s113.088-45.716 113.088-102.861c0-160.005-226.175-283.438-226.175-283.438s-226.175 139.433-226.175 283.438c0 57.145 50.261 102.861 113.088 102.861s113.088-45.716 113.088-102.861z" />
<glyph unicode="&#xe90c;" glyph-name="film-roll" horiz-adv-x="1260" d="M549.594 852.587h-456.504c-7.91 0-14.322 6.412-14.322 14.322s6.412 14.322 14.322 14.322h456.504c7.91 0 14.322-6.412 14.322-14.322s-6.412-14.322-14.322-14.322v0zM549.594 773.818c51.413 0 93.091 41.678 93.091 93.091s-41.678 93.091-93.091 93.091h-456.504c-51.413 0-93.091-41.678-93.091-93.091s41.678-93.091 93.091-93.091h456.504zM549.594 46.993h-456.504c-7.91 0-14.322 6.412-14.322 14.322s6.412 14.322 14.322 14.322h456.504c7.91 0 14.322-6.412 14.322-14.322s-6.412-14.322-14.322-14.322v0zM549.594-31.776c51.413 0 93.091 41.678 93.091 93.091s-41.678 93.091-93.091 93.091h-456.504c-51.413 0-93.091-41.678-93.091-93.091s41.678-93.091 93.091-93.091h456.504zM132.476 141.874v644.476h-78.769v-644.476h78.769zM510.21 786.35v-644.476h78.769v644.476h-78.769zM1260.308 437.259v241.678c0 51.413-41.678 93.091-93.091 93.091h-657.007v-615.832h508.42v39.385c0 111.724 90.57 202.294 202.294 202.294h39.385v39.385zM1181.538 437.259l39.385 39.385c-155.227 0-281.063-125.836-281.063-281.063l39.385 39.385h-429.65l39.385-39.385v537.063l-39.385-39.385h617.622c7.91 0 14.322-6.412 14.322-14.322v-241.678zM657.007 585.846h53.706v78.769h-53.706v-78.769zM818.126 585.846h53.706v78.769h-53.706v-78.769zM657.007 263.608h53.706v78.769h-53.706v-78.769zM818.126 263.608h53.706v78.769h-53.706v-78.769zM979.245 585.846h53.706v78.769h-53.706v-78.769zM161.119 732.643v-322.238h78.769v322.238h-78.769z" />
<glyph unicode="&#xe90d;" glyph-name="folder-label" d="M869.446 5.818h-714.892c-35.291 0-64.213 28.005-65.351 63.277l-19.397 601.3-23.261-24.023h930.909l-23.261 24.023-19.397-601.3c-1.138-35.272-30.061-63.277-65.351-63.277v0zM869.446-40.727c60.413 0 109.925 47.941 111.872 108.322l20.172 625.323h-978.98l20.172-625.323c1.948-60.381 51.46-108.322 111.873-108.322h714.892zM956.398 713.974v22.165c0 49.577-40.19 89.766-89.766 89.766h-288.139l14.899-5.394-139.46 116.217h-274.4c-49.577 0-89.766-40.19-89.766-89.766v-132.987h46.545v132.987c0 23.87 19.351 43.221 43.221 43.221h265.974l-14.899 5.394 139.46-116.217h296.564c23.87 0 43.221-19.351 43.221-43.221v-22.165h46.545zM401.177 225.247h421.126l-23.273 23.273v-132.987l23.273 23.273h-421.126l23.273-23.273v132.987l-23.273-23.273zM401.177 271.792h-23.273v-179.532h467.671v179.532h-444.398z" />
<glyph unicode="&#xe90e;" glyph-name="group-share" horiz-adv-x="1006" d="M502.857 275.81c101.674 0 184.104 82.091 184.104 183.365s-82.43 183.365-184.104 183.365c-101.674 0-184.104-82.091-184.104-183.365s82.43-183.365 184.104-183.365v0zM502.857 284.952c-96.633 0-174.961 78.006-174.961 174.222s78.329 174.222 174.961 174.222c96.633 0 174.961-78.006 174.961-174.222s-78.329-174.222-174.961-174.222v0zM640.732 590.031l201.974 201.143-6.452 6.478-201.974-201.143 6.452-6.478zM906.805 767.492c52.097 0 94.338 42.067 94.338 93.968s-42.241 93.968-94.338 93.968c-52.097 0-94.338-42.067-94.338-93.968s42.241-93.968 94.338-93.968v0zM906.805 776.635c-47.056 0-85.195 37.982-85.195 84.825s38.139 84.825 85.195 84.825c47.056 0 85.195-37.982 85.195-84.825s-38.139-84.825-85.195-84.825v0zM839.481-59.429c76.885 0 139.221 62.079 139.221 138.667s-62.335 138.667-139.221 138.667c-76.885 0-139.221-62.079-139.221-138.667s62.335-138.667 139.221-138.667v0zM839.481-50.286c-71.844 0-130.078 57.994-130.078 129.524s58.234 129.524 130.078 129.524c71.844 0 130.078-57.994 130.078-129.524s-58.234-129.524-130.078-129.524v0zM98.909 611.048c52.097 0 94.338 42.067 94.338 93.968s-42.241 93.968-94.338 93.968c-52.097 0-94.338-42.067-94.338-93.968s42.241-93.968 94.338-93.968v0zM98.909 620.19c-47.056 0-85.195 37.982-85.195 84.825s38.139 84.825 85.195 84.825c47.056 0 85.195-37.982 85.195-84.825s-38.139-84.825-85.195-84.825v0zM188.675 85.841c33.506 0 60.675 27.058 60.675 60.444s-27.169 60.444-60.675 60.444c-33.506 0-60.675-27.058-60.675-60.444s27.169-60.444 60.675-60.444v0zM188.675 94.984c-28.465 0-51.532 22.973-51.532 51.302s23.068 51.302 51.532 51.302c28.465 0 51.532-22.973 51.532-51.302s-23.068-51.302-51.532-51.302v0zM236.784 187.745l134.649 134.095-6.452 6.478-134.649-134.095 6.452-6.478zM348.027 574.894l-157.091 89.397-4.522-7.946 157.091-89.397 4.522 7.946zM634.001 322.146l112.208-134.095 7.012 5.867-112.208 134.095-7.012-5.867z" />
<glyph unicode="&#xe90f;" glyph-name="home-4" horiz-adv-x="1176" d="M975.356 448v-402.963c0-28.767-23.587-52.148-52.767-52.148h-191.279l18.963-18.963v237.037c0 36.691-29.938 66.37-66.783 66.37h-191.279c-36.845 0-66.783-29.68-66.783-66.37v-237.037l18.963 18.963h-191.279c-29.18 0-52.767 23.381-52.767 52.148v402.963h-37.926v-402.963c0-49.788 40.641-90.074 90.692-90.074h210.242v256c0 15.671 12.884 28.444 28.857 28.444h191.279c15.972 0 28.857-12.774 28.857-28.444v-256h210.242c50.051 0 90.692 40.286 90.692 90.074v402.963h-37.926zM50.308 433.637l549.926 474.074h-24.763l549.926-474.074 24.763 28.725-562.308 484.748-562.308-484.748 24.763-28.725zM587.852 448.794c65.455 0 118.583 52.67 118.583 117.724s-53.128 117.724-118.583 117.724c-65.455 0-118.583-52.67-118.583-117.724s53.128-117.724 118.583-117.724v0zM587.852 486.72c-44.582 0-80.657 35.764-80.657 79.799s36.075 79.799 80.657 79.799c44.582 0 80.657-35.764 80.657-79.799s-36.075-79.799-80.657-79.799v0z" />
<glyph unicode="&#xe910;" glyph-name="line-visuals" horiz-adv-x="1170" d="M0 505.167v-107.020h73.143v107.020h-73.143zM107.020 558.677v-240.794h73.143v240.794h-73.143zM214.039 585.432v-267.549h73.143v267.549h-73.143zM321.059 772.716v-642.117h73.143v642.117h-73.143zM428.078 719.206v-535.098h73.143v535.098h-73.143zM535.098 799.471v-695.627h73.143v695.627h-73.143zM642.117 960v-1016.686h73.143v1016.686h-73.143zM749.137 799.471v-695.627h73.143v695.627h-73.143zM856.156 665.696v-428.078h73.143v428.078h-73.143zM963.176 505.167v-107.020h73.143v107.020h-73.143zM1070.195 558.677v-214.039h73.143v214.039h-73.143z" />
<glyph unicode="&#xe911;" glyph-name="mail" horiz-adv-x="1257" d="M1154.771 5.818h-1052.814c-17.528 0-32.139 14.876-32.139 33.146v818.072c0 18.27 14.61 33.146 32.139 33.146h1052.814c17.528 0 32.139-14.876 32.139-33.146v-818.072c0-18.27-14.61-33.146-32.139-33.146v0zM1154.771-40.727c43.424 0 78.684 35.901 78.684 79.691v818.072c0 43.791-35.26 79.691-78.684 79.691h-1052.814c-43.424 0-78.684-35.901-78.684-79.691v-818.072c0-43.791 35.26-79.691 78.684-79.691h1052.814zM30.344 896.747l523.636-507.769c42.636-39.8 106.916-39.8 146.398 0.4l525.96 507.326-32.314 33.5-526.407-507.769c-21.917-22.304-57.377-22.304-81.557 0.263l-523.315 507.462-32.402-33.415zM62.162-34.71l498.701 451.35-31.233 34.51-498.701-451.35 31.233-34.51zM1225.799-0.199l-498.701 451.35-31.233-34.51 498.701-451.35 31.233 34.51z" />
<glyph unicode="&#xe912;" glyph-name="movie" horiz-adv-x="1152" d="M1033.143 0h-914.286c-30.169 0-54.857 25.346-54.857 56.889v782.222c0 31.543 24.688 56.889 54.857 56.889h914.286c30.169 0 54.857-25.346 54.857-56.889v-782.222c0-31.543-24.688-56.889-54.857-56.889v0zM1033.143-42.667c53.988 0 97.524 44.696 97.524 99.556v782.222c0 54.859-43.535 99.556-97.524 99.556h-914.286c-53.988 0-97.524-44.696-97.524-99.556v-782.222c0-54.859 43.535-99.556 97.524-99.556h914.286zM42.667 739.556h1066.667v42.667h-1066.667v-42.667zM42.667 113.778h1066.667v42.667h-1066.667v-42.667zM486.794 587.541l203.175-156.444v33.806l-203.175-156.444 34.349-16.903v312.889l-34.349-16.903zM512.825 621.347l-34.349 26.448v-399.592l259.475 199.796-225.127 173.347zM224.508 917.333v-156.444h42.667v156.444h-42.667zM224.508 135.111v-156.444h42.667v156.444h-42.667zM427.683 917.333v-156.444h42.667v156.444h-42.667zM427.683 135.111v-156.444h42.667v156.444h-42.667zM656.254 917.333v-156.444h42.667v156.444h-42.667zM656.254 135.111v-156.444h42.667v156.444h-42.667zM859.429 917.333v-156.444h42.667v156.444h-42.667zM859.429 135.111v-156.444h42.667v156.444h-42.667z" />
<glyph unicode="&#xe913;" glyph-name="network-tred" horiz-adv-x="896" d="M325.981 540.557c-67.538 68.249-67.538 178.993 0 247.242l-30.327 30.012c-83.99-84.874-83.99-222.391 0-307.265l30.327 30.012zM570.019 787.799c67.538-68.249 67.538-178.993 0-247.242l30.327-30.012c83.99 84.874 83.99 222.391 0 307.265l-30.327-30.012zM256.165 470.006c-106.096 107.213-106.096 281.131 0 388.344l-30.327 30.012c-122.549-123.839-122.549-324.529 0-448.367l30.327 30.012zM639.835 858.35c106.096-107.213 106.096-281.131 0-388.344l30.327-30.012c122.549 123.839 122.549 324.529 0 448.367l-30.327-30.012zM448 551.822c61.579 0 111.407 50.353 111.407 112.356s-49.829 112.356-111.407 112.356c-61.579 0-111.407-50.353-111.407-112.356s49.829-112.356 111.407-112.356v0zM448 594.489c-37.914 0-68.741 31.151-68.741 69.689s30.827 69.689 68.741 69.689c37.914 0 68.741-31.151 68.741-69.689s-30.827-69.689-68.741-69.689v0zM426.667 573.156v-637.156h42.667v637.156h-42.667zM714.529 922.824c141.333-142.821 141.333-374.471 0-517.292l30.327-30.012c157.786 159.447 157.786 417.869 0 577.315l-30.327-30.012zM181.471 405.532c-141.333 142.821-141.333 374.471 0 517.292l-30.327 30.012c-157.786-159.447-157.786-417.869 0-577.315l30.327 30.012z" />
<glyph unicode="&#xe914;" glyph-name="numberpeople" horiz-adv-x="993" d="M348.386 543.912c110.615 0 200.287 89.671 200.287 200.287s-89.671 200.287-200.287 200.287c-110.615 0-200.287-89.671-200.287-200.287s89.671-200.287 200.287-200.287v0zM348.386 605.972c-76.34 0-138.226 61.886-138.226 138.226s61.886 138.226 138.226 138.226c76.34 0 138.226-61.886 138.226-138.226s-61.886-138.226-138.226-138.226v0zM623.427 13.576h-550.083c-6.232 0-11.284 5.052-11.284 11.284v251.068c0 136.319 110.508 246.828 246.828 246.828h78.995c136.319 0 246.828-110.508 246.828-246.828v-251.068c0-6.232-5.052-11.284-11.284-11.284v0zM623.427-48.485c40.507 0 73.344 32.837 73.344 73.344v251.068c0 170.594-138.294 308.888-308.888 308.888h-78.995c-170.594 0-308.888-138.294-308.888-308.888v-251.068c0-40.507 32.837-73.344 73.344-73.344h550.083zM475.328 851.394c70.108 0 126.942-56.834 126.942-126.942s-56.834-126.942-126.942-126.942h-71.171l75.982-81.807h13.529c136.319 0 246.828-110.508 246.828-246.828v-212.985c0-6.232-5.052-11.284-11.284-11.284h-63.471v-62.061h63.471c40.507 0 73.344 32.837 73.344 73.344v212.985c0 170.594-138.294 308.888-308.888 308.888v-31.030l22.736 21.117-18.34 19.747-22.736-21.117v-31.030c104.383 0 189.003 84.619 189.003 189.003s-84.619 189.003-189.003 189.003v-62.061zM626.449 757.598c56.975 0 102.863-47.11 102.863-105.433 0-57.586-47.427-104.904-105.13-104.904h-26.493l-10.607-66.821h36.344c115.046 0 222.854-106.074 222.854-219.828v-172.282c0-6.232-5.052-11.284-11.284-11.284h-42.314v-62.061h42.314c40.507 0 73.344 32.837 73.344 73.344v172.282c0 148.257-135.817 281.888-284.915 281.888v-31.030l30.647-4.865 0.756 4.76-30.647 4.865v-31.030c91.947 0 167.191 75.071 167.191 166.964 0 92.238-73.304 167.493-164.924 167.493v-62.061zM756.352 691.564c43.335 0 76.828-35.329 76.828-81.051 0-44.064-37.52-80.828-82.494-80.828h-36.826l11.336-65.879h26.147c92.169 0 179.567-85.228 179.567-175.685v-136.32c0-6.232-5.052-11.284-11.284-11.284h-42.314v-62.061h42.314c40.507 0 73.344 32.837 73.344 73.344v136.32c0 125.086-115.527 237.746-241.627 237.746v-31.030l30.581 5.262-0.657 3.818-30.581-5.262v-31.030c78.969 0 144.555 64.264 144.555 142.889 0 79.278-60.516 143.111-138.888 143.111v-62.061z" />
<glyph unicode="&#xe915;" glyph-name="office51" horiz-adv-x="993" d="M904.312 397.022v398.961c0 41.62-33.74 75.359-75.359 75.359h-177.316v-62.061h177.316c7.345 0 13.299-5.954 13.299-13.299v-398.961h62.061zM208.346 871.342h-132.987c-41.62 0-75.359-33.74-75.359-75.359v-775.758c0-41.62 33.74-75.359 75.359-75.359h620.606v62.061h-620.606c-7.345 0-13.299 5.954-13.299 13.299v775.758c0 7.345 5.954 13.299 13.299 13.299h132.987v62.061zM562.978 871.342h-265.974v-62.061h265.974v62.061zM252.675 762.834c-7.345 0-13.299 5.954-13.299 13.299v108.508c0 7.345 5.954 13.299 13.299 13.299s13.299-5.954 13.299-13.299v-108.508c0-7.345-5.954-13.299-13.299-13.299v0zM252.675 700.773c41.62 0 75.359 33.739 75.359 75.359v108.508c0 41.62-33.74 75.359-75.359 75.359s-75.359-33.739-75.359-75.359v-108.508c0-41.62 33.74-75.359 75.359-75.359v0zM607.307 762.834c-7.345 0-13.299 5.954-13.299 13.299v108.508c0 7.345 5.954 13.299 13.299 13.299s13.299-5.954 13.299-13.299v-108.508c0-7.345-5.954-13.299-13.299-13.299v0zM607.307 700.773c41.62 0 75.359 33.739 75.359 75.359v108.508c0 41.62-33.74 75.359-75.359 75.359s-75.359-33.739-75.359-75.359v-108.508c0-41.62 33.74-75.359 75.359-75.359v0zM729.212-55.134c145.669 0 263.758 118.088 263.758 263.758s-118.088 263.758-263.758 263.758c-145.669 0-263.758-118.088-263.758-263.758s118.088-263.758 263.758-263.758v0zM729.212 6.926c-111.394 0-201.697 90.303-201.697 201.697s90.303 201.697 201.697 201.697c111.394 0 201.697-90.303 201.697-201.697s-90.303-201.697-201.697-201.697v0zM687.1 308.364v-125.736l122.468-97.975 38.769 48.461-110.823 88.658 11.646-24.231v110.823h-62.061zM239.377 552.173v88.658l-31.030-31.030h88.658v62.061h-119.688v-119.688h62.061zM438.857 552.173v88.658l-31.030-31.030h88.658v62.061h-119.688v-119.688h62.061zM638.338 552.173v88.658l-31.030-31.030h88.658v62.061h-119.688v-119.688h62.061zM239.377 352.693v88.658l-31.030-31.030h88.658v62.061h-119.688v-119.688h62.061zM438.857 352.693v88.658l-31.030-31.030h88.658v62.061h-119.688v-119.688h62.061zM239.377 131.048v88.658l-31.030-31.030h88.658v62.061h-119.688v-119.688h62.061zM438.857 131.048v88.658l-31.030-31.030h88.658v62.061h-119.688v-119.688h62.061z" />
<glyph unicode="&#xe916;" glyph-name="People" horiz-adv-x="979" d="M482.672 317.409c98.994 0 187.106 111.648 212.336 201.546-1.761-6.234-2.533-6.978-5.295-9.024 0.854 0.632 2.239 1.555 4.52 3.014 0.258 0.165 0.258 0.165 0.519 0.332 3.189 2.026 4.893 3.125 6.549 4.264 5.235 3.601 7.391 5.381 10.108 10.308 36.859 66.896 35.254 113.598 4.231 138.961-8.94 7.309-17.932 10.891-25.057 12.235l18.101-23.065c0.048 0.913 0.048 0.913 0.163 4.276 0.881 30.231-1.273 66.373-9.098 101.524-0.736 3.304-1.517 6.561-2.345 9.77-5.117 19.48-17.913 46.997-41.791 74.453-39.68 45.626-96.849 73.063-172.941 73.063s-133.261-27.437-172.941-73.063c-23.878-27.456-36.674-54.973-41.767-74.363-0.852-3.299-1.633-6.557-2.369-9.861-7.826-35.151-9.98-71.293-9.098-101.524 0.115-3.362 0.115-3.362 0.163-4.276l18.101 23.065c-7.125-1.345-16.117-4.926-25.057-12.235-31.023-25.363-32.627-72.066 4.227-138.954 2.72-4.933 4.876-6.713 10.112-10.314 1.656-1.139 3.36-2.238 6.549-4.264 0.261-0.167 0.261-0.167 0.519-0.332 2.281-1.459 3.666-2.382 4.52-3.014-2.762 2.045-3.534 2.79-5.285 8.988 25.22-89.862 113.332-201.51 212.326-201.51v0zM482.672 361.931c-73.091 0-149.030 96.224-169.471 169.055-2.112 7.476-4.845 10.112-11.075 14.725-1.911 1.415-3.922 2.755-7.023 4.739-0.282 0.18-0.282 0.18-0.561 0.358-3.166 2.015-4.252 2.716-5.269 3.415 1.536-1.056 1.547-1.065 3.648-4.875-27.56 50.019-26.756 73.414-15.038 82.994 2.381 1.947 4.71 2.874 5.132 2.954l19.143 3.612-1.042 19.453c-0.022 0.403-0.022 0.403-0.119 3.192-0.783 26.864 1.17 59.633 8.053 90.552 0.629 2.823 1.294 5.596 1.996 8.315 0.73 2.779 2.798 8.696 6.482 16.62 6.293 13.533 14.804 27.11 25.795 39.748 31.427 36.137 76.478 57.758 139.347 57.758s107.92-21.621 139.347-57.758c10.991-12.638 19.502-26.215 25.795-39.748 3.685-7.923 5.752-13.84 6.506-16.71 0.679-2.629 1.344-5.401 1.972-8.224 6.884-30.918 8.836-63.687 8.053-90.552-0.096-2.789-0.096-2.789-0.119-3.192l-1.042-19.453 19.143-3.612c0.422-0.080 2.752-1.008 5.132-2.954 11.718-9.58 12.522-32.976-15.042-83.001 2.105 3.817 2.116 3.826 3.651 4.882-1.017-0.699-2.103-1.4-5.269-3.415-0.279-0.178-0.279-0.178-0.561-0.358-3.102-1.984-5.112-3.324-7.023-4.739-6.23-4.614-8.963-7.249-11.064-14.689-20.45-72.867-96.39-169.090-169.481-169.090v0zM566.302 355.838c12.157-12.35 34.857-29.952 67.851-47.313 18.855-9.921 39.231-18.595 61.105-25.676 127.916-41.401 192.924-114.856 199.795-262.955l17.438 22.769c-5.348-1.181-15.909-3.299-31.266-6.045-25.754-4.604-55.473-9.215-88.739-13.522-95.177-12.324-199.564-19.722-309.812-19.722s-214.635 7.398-309.812 19.722c-33.267 4.308-62.986 8.918-88.739 13.522-15.357 2.745-25.918 4.864-31.266 6.045l17.438-22.769c6.871 148.099 71.879 221.555 199.793 262.955 21.876 7.082 42.252 15.755 61.106 25.677 32.994 17.361 55.694 34.963 67.851 47.313l-31.73 31.232c-1.985-2.017-6.521-6.084-13.548-11.533-12.070-9.359-26.525-18.782-43.305-27.612-16.65-8.761-34.686-16.439-54.085-22.719-144.484-46.763-222.76-135.211-230.556-303.249l-0.869-18.727 18.306-4.042c5.922-1.307 17.070-3.544 33.030-6.397 26.442-4.727 56.865-9.447 90.857-13.849 96.99-12.559 203.266-20.091 315.529-20.091s218.54 7.532 315.529 20.091c33.992 4.401 64.415 9.122 90.857 13.849 15.96 2.853 27.108 5.089 33.030 6.397l18.306 4.042-0.869 18.727c-7.795 168.039-86.072 256.486-230.558 303.25-19.398 6.28-37.433 13.957-54.084 22.718-16.78 8.83-31.235 18.253-43.305 27.612-7.027 5.449-11.563 9.516-13.548 11.533l-31.73-31.232zM683.554 305.671c-8.622-13.402-18.6-25.952-29.859-37.498-90.617-92.935-237.297-92.935-327.913 0-14.279 14.644-26.493 30.899-36.49 48.441l-38.682-22.043c11.865-20.82 26.363-40.114 43.295-57.48 108.090-110.855 283.577-110.855 391.667 0 13.349 13.69 25.19 28.584 35.424 44.491l-37.442 24.089zM467.478 176.21v-173.945h44.522v173.945h-44.522z" />
<glyph unicode="&#xe917;" glyph-name="small-phone" horiz-adv-x="649" d="M122.592 830.197h411.042l-7.211 7.211v-411.042l7.211 7.211h-411.042l7.211-7.211v411.042l-7.211-7.211zM122.592 844.62h-7.211v-425.465h425.465v425.465h-418.254zM555.268-42.366h-454.31c-43.809 0-79.324 35.515-79.324 79.324v822.085c0 43.809 35.515 79.324 79.324 79.324h454.31c43.809 0 79.324-35.515 79.324-79.324v-822.085c0-43.809-35.515-79.324-79.324-79.324v0zM555.268-56.789c51.775 0 93.746 41.972 93.746 93.746v822.085c0 51.775-41.972 93.746-93.746 93.746h-454.31c-51.775 0-93.746-41.972-93.746-93.746v-822.085c0-51.775 41.972-93.746 93.746-93.746h454.31zM144.225 188.394h42.623v-42.623h-42.623v42.623zM253.039 188.394h42.623v-42.623h-42.623v42.623zM144.225 101.215h42.623v-42.623h-42.623v42.623zM253.039 101.215h42.623v-42.623h-42.623v42.623zM361.208 188.394h42.623v-42.623h-42.623v42.623zM468.732 188.394h42.623v-42.623h-42.623v42.623zM144.225 274.285h42.623v-42.623h-42.623v42.623zM253.039 274.285h42.623v-42.623h-42.623v42.623zM361.208 274.285h42.623v-42.623h-42.623v42.623zM468.732 274.285h42.623v-42.623h-42.623v42.623zM144.225 361.465h42.623v-42.623h-42.623v42.623zM253.039 361.465h42.623v-42.623h-42.623v42.623zM361.208 361.465h42.623v-42.623h-42.623v42.623zM468.732 361.465h42.623v-42.623h-42.623v42.623zM361.208 101.215h42.623v-42.623h-42.623v42.623zM468.732 101.215h42.623v-42.623h-42.623v42.623z" />
<glyph unicode="&#xe918;" glyph-name="snow-home-3" d="M286.536 14.637v228.080c0 44.662 36.724 81.008 82.196 81.008s82.197-36.345 82.197-81.008v-182.453h66.065v182.453c0 81.303-66.455 147.072-148.261 147.072s-148.261-65.769-148.261-147.072v-228.080h66.065zM378.719 14.648v250.877c0 25.756 12.244 49.476 32.769 64.732l-39.412 53.021c-37.087-27.567-59.421-70.835-59.421-117.753v-250.877h66.065zM610.364 739.068c145.818-55.884 243.865-194.968 243.865-352.134v-189.822h66.065v189.822c0 184.841-115.197 348.255-286.288 413.823l-23.642-61.689zM90.647 14.648v372.286c0 181.757 130.904 336.866 309.363 370.733l-12.318 64.906c-209.387-39.737-363.11-221.884-363.11-435.639v-372.286h66.065zM447.856-8.16c0 19.469 16.088 35.392 36.105 35.392 10.13 0 19.526-4.203 26.455-11.6l36.452-38.917 18.611 49.97c5.189 13.932 18.499 23.356 33.711 23.356 3.812 0 7.849-0.774 12.314-2.379l47.381-17.028-3.246 50.243c-0.268 2.959-0.268 2.959-0.46 4.279-0.004 0.028-0.004 0.028-0.008 0.054-0.025 0.355 0.096-0.83 0.096-2.138 0 18.408 14.611 33.706 33.632 34.997l68.991 4.684-46.998 50.723c-6.165 6.653-9.533 14.902-9.533 23.636 0 19.469 16.088 35.392 36.105 35.392s36.105-15.922 36.105-35.392c0 1.54 0.145 2.914 0.161 2.84-0.001-0.008-0.001-0.008-0.002-0.017-0.19-1.246-0.19-1.246-0.456-4.505l-2.246-44.958 43.561 11.343c5.918 1.541 10.702 2.264 15.061 2.264 32.745 0 59.151-26.133 59.151-58.2v-24.846l23.871-6.891c1.865-0.538 6.994-3.087 12.285-7.917 13.557-12.379 19.327-32.059 10.884-66.527l64.167-15.718c14.133 57.695 1.090 102.183-30.505 131.031-13.758 12.562-27.676 19.477-38.51 22.604l23.871-31.737c0 68.707-56.136 124.264-125.215 124.264-10.554 0-20.737-1.539-31.709-4.396l8.324-31.966 32.991-1.648c-0.147-1.768-0.147-1.768-0.127-1.549 0.001 0.009 0.001 0.009 0.003 0.018 0.274 1.737 0.504 3.922 0.504 6.51 0 56.11-45.819 101.456-102.17 101.456s-102.17-45.346-102.17-101.456c0-25.727 9.872-49.904 27.137-68.537l24.23 22.451-2.237 32.956c-53.379-3.624-95.221-47.432-95.221-100.91 0-2.712 0.232-4.975 0.544-7.041 0.004-0.030 0.004-0.030 0.008-0.059 0.060-0.483 0.060-0.483-0.044 0.645l32.964 2.129 11.172 31.086c-11.316 4.067-22.819 6.272-34.658 6.272-43.042 0-80.882-26.789-95.621-66.362l30.955-11.529 24.108 22.581c-19.236 20.537-45.987 32.502-74.672 32.502-56.351 0-102.17-45.346-102.17-101.456h66.065zM0-41.192h990.968v66.065h-990.968v-66.065zM599.19 414.968h46.092v66.065h-46.092v-66.065zM553.098 346.544h46.092v66.065h-46.092v-66.065zM161.32 597.432h46.092v66.065h-46.092v-66.065zM253.503 506.2h46.092v66.065h-46.092v-66.065zM576.144 937.192c-8.004 0-15.763-1.053-23.88-2.993l7.677-32.128 25.286 21.254c-19.337 23.005-47.619 36.674-78.221 36.674-56.351 0-102.17-45.346-102.17-101.456h33.032v33.032c-43.623 0-79.124-35.134-79.124-78.648s35.502-78.648 79.124-78.648h138.275c56.351 0 102.17 45.346 102.17 101.456s-45.819 101.456-102.17 101.456v0zM576.144 871.127c20.017 0 36.105-15.922 36.105-35.392s-16.088-35.392-36.105-35.392h-138.275c-7.288 0-13.059 5.711-13.059 12.584s5.77 12.584 13.059 12.584h33.032v33.032c0 19.469 16.088 35.392 36.105 35.392 10.737 0 20.649-4.79 27.649-13.118l13.124-15.614 19.839 4.741c3.4 0.812 6.135 1.184 8.526 1.184v0z" />
<glyph unicode="&#xe919;" glyph-name="sociaiiconsrss" horiz-adv-x="1061" d="M683.176 20.634c0 152.985-58.362 305.97-175.085 422.693s-280.365 175.085-422.693 175.085v-170.794c113.863 0 218.55-41.687 301.924-125.061s125.061-192.649 125.061-301.924h170.794zM825.504 49.099c0-9.547-0.347-19.011-0.719-28.466h199.26c0.292 9.476 0.719 18.919 0.719 28.466 0 503.078-407.825 910.901-910.901 910.901-9.547 0-18.99-0.427-28.466-0.719v-199.26c9.455 0.372 18.919 0.719 28.466 0.719 393.029 0 711.641-318.612 711.641-711.641v0zM284.657 77.565c0-78.606-63.723-142.328-142.328-142.328s-142.328 63.723-142.328 142.328c0 78.606 63.723 142.328 142.328 142.328s142.328-63.723 142.328-142.328z" />
<glyph unicode="&#xe91a;" glyph-name="sociaiiconsvimeo" horiz-adv-x="1207" d="M1013.045 955.983c-163.164 5.321-273.58-86.199-331.389-274.675 29.772 12.258 58.709 18.452 86.916 18.452 59.504 0 85.847-33.397 78.805-100.361-3.482-40.543-29.772-99.539-78.805-176.974-49.215-77.553-85.977-116.27-110.402-116.27-31.715 0-60.574 59.922-86.929 179.609-8.842 35.249-24.647 125.008-47.272 269.498-21.217 133.823-77.279 196.353-168.433 187.563-38.561-3.534-96.331-38.848-173.427-105.681-56.244-51.093-113.232-102.199-171.158-153.254l55.188-71.254c52.671 37.009 83.486 55.423 92.041 55.423 40.387 0 78.113-63.351 113.206-190.054 31.467-116.362 63.195-232.567 94.805-348.759 47.090-126.794 105.134-190.211 173.414-190.211 110.441 0 245.659 103.869 405.12 311.671 154.271 198.948 233.923 355.696 239.296 470.271 7.081 153.123-49.907 231.536-170.976 235.005v0z" />
<glyph unicode="&#xe91b;" glyph-name="userinteractionreviewmalegroup" horiz-adv-x="1122" d="M558.952 320.307c99.363 0 165.392 134.893 175.028 169.061 1.849 7.383 12.224 6.734 18.72 19.682 42.981 85.68-6.91 100.933-6.91 100.933s2.755 51.187-9.724 99.278c0 0-31.507 119.356-177.114 119.356s-177.114-119.356-177.114-119.356c-12.478-48.091-9.724-99.278-9.724-99.278s-49.891-20.719-7.58-100.523c6.269-11.825 15.398-10.249 19.389-20.092 9.636-34.168 75.666-169.061 175.028-169.061v0zM672.046 348.398c0 0 39.713-35.119 110.422-62.425 122.298-47.228 162.244-154.771 170.048-285.684 1.781-29.873-22.075-61.482-51.399-61.482h-662.103c-29.836 0-53.080 32.42-51.331 62.818 7.735 134.43 47.63 233.783 170.076 281.068 70.71 27.306 107.83 64.065 107.83 64.065zM207.608 122.465h-150.607c-28.129 0-51.013 29.672-51.435 58.376-1.432 97.591 2.51 187.349 120.819 233.037 70.71 27.306 132.639 69.325 132.639 69.325-49.81 31.176-100.084 113.873-106.473 136.53-3.991 9.843-13.12 8.677-19.389 20.501-42.311 79.804 7.58 100.728 7.58 100.728s-2.755 51.29 9.724 99.38c0 0 31.507 119.407 177.114 119.407s177.114-125.889 177.114-125.889zM927.435 122.465h142.633c28.129 0 51.013 29.672 51.434 58.376 1.432 97.591-2.51 187.349-120.819 233.037-70.71 27.306-132.699 72.624-132.699 72.624 53.023 24.597 100.144 110.574 106.534 133.23 3.991 9.843 13.12 8.677 19.389 20.501 42.311 79.804-7.58 100.728-7.58 100.728s2.755 51.29-9.724 99.38c0 0-31.507 119.407-177.114 119.407s-173.127-125.889-173.127-125.889z" />
<glyph unicode="&#xe91c;" glyph-name="volume-close" horiz-adv-x="1214" d="M627.91 920.577l-322.484-223.947c-33.759-23.444-73.877-36.008-114.978-36.008h-92.646c-54.014 0-97.801-43.787-97.801-97.801v-239.502c0-54.014 43.787-97.801 97.801-97.801h92.646c41.101 0 81.219-12.564 114.978-36.008l322.484-223.947c45.001-31.251 106.573 0.954 106.573 55.741v843.532c0 54.788-61.572 86.992-106.573 55.741v0zM671.176 858.274c-5.297-3.679-12.545 0.112-12.545 6.561v-843.532c0 6.449 7.248 10.24 12.545 6.561l-322.484 223.947c-46.462 32.265-101.677 49.557-158.244 49.557h-92.646c-12.122 0-21.95 9.827-21.95 21.95v239.502c0 12.122 9.827 21.95 21.95 21.95h92.646c56.567 0 111.782 17.292 158.244 49.557l322.484 223.947zM850.87 564.436l296.369-296.369 53.635 53.635-296.369 296.369-53.635-53.635zM1147.239 618.072l-296.369-296.369 53.635-53.635 296.369 296.369-53.635 53.635z" />
<glyph unicode="&#xe91d;" glyph-name="whatsapp" d="M1002.366 460.815c0-263.741-215.467-477.551-481.321-477.551-82.511 0-162 20.639-232.681 59.428l-2.709 1.487-273.417-86.884 9.013-9.188 89.263 263.279-1.751 2.876c-44.939 73.803-69.051 158.435-69.051 246.553 0 263.737 215.485 477.551 481.343 477.551 265.852 0 481.31-213.808 481.31-477.551v0zM1016.789 460.815c0 271.733-221.94 491.973-495.733 491.973-273.799 0-495.766-220.246-495.766-491.973 0-90.785 24.851-178.008 71.155-254.054l-0.67 6.066-92.761-273.597 284.065 90.268-5.653 0.551c72.794-39.949 154.668-61.207 239.62-61.207 273.795 0 495.744 220.242 495.744 491.973v0zM521.045 875.587c-230.461 0-417.945-186.042-417.945-414.771 0-88.466 28.18-172.905 79.633-243.217l-1.010 6.574-55.897-164.861 171.436 54.487-6.142 0.845c67.765-44.495 147.109-68.599 229.924-68.599 230.448 0 417.945 186.040 417.945 414.76 0 228.728-187.493 414.782-417.945 414.782v0zM521.045 861.164c222.511 0 403.522-179.622 403.522-400.36 0-220.73-181.014-400.338-403.522-400.338-79.98 0-156.577 23.27-222.008 66.233l-2.87 1.885-161.115-51.207 9.014-9.188 52.52 154.902-2.213 3.025c-49.662 67.865-76.85 149.329-76.85 234.7 0 220.74 181.002 400.349 403.522 400.349v0zM773.898 352.929c-1.84 3.013-4.529 5.377-8.306 7.684-2.084 1.273-4.43 2.5-7.967 4.22 0.368-0.179-7.233 3.473-9.63 4.663-29.259 14.495-73.56 35.715-82.584 38.969-16.811 6.055-26.211 4.996-35.403-8.703-6.173-9.213-24.301-31.044-37.344-45.819-4.747-5.401-8.217-5.821-17.329-1.299 2.011-0.998-23.888 10.387-35.309 16.442-19.978 10.593-39.623 23.952-59.415 41.467-27.445 24.282-49.361 53.57-65.18 80.527-3.705 6.312-2.86 8.563 4.103 15.449 3.222 3.182 6.009 6.407 12.258 13.954 0.031 0.037 0.031 0.037 0.062 0.075 3.103 3.747 4.419 5.321 6.038 7.197 2.536 2.933 4.557 5.698 6.362 8.653 1.038 1.7 1.993 3.439 3.066 5.543 0.691 1.355 3.125 6.313 3.526 7.115 4.671 9.226 3.735 17.898-1.007 27.295-1.392 2.768-7.763 17.946-20.253 48.084-0.059 0.141-0.059 0.141-0.117 0.283-0.279 0.673-7.16 17.283-9.004 21.732-3.204 7.726-5.532 13.322-7.344 17.644-8.376 19.965-17.285 25.247-31.293 24.347-1.347-0.087-1.786-0.109-2.293-0.109-2.672 0-4.776 0.106-10.637 0.483-5.648 0.363-8.572 0.503-12.042 0.512-0.138 0-0.138 0-0.276 0-12.657 0-26.42-5.464-37.242-17.179 1.084 1.175-6.082-6.454-8.472-9.151-4.064-4.586-7.723-9.168-11.203-14.184-15.262-22-24.135-48.175-24.135-80.664 0-28.878 9.631-58.972 25.655-88.766 4.867-9.050 10.059-17.549 15.379-25.441 3.53-5.237 6.154-8.847 9.327-13.031-2.907 3.847 13.82-20.23 24.058-33.564 17.522-22.821 37.168-45.11 59.179-66.008 38.298-36.36 79.839-64.738 124.443-82.17 84.111-32.859 112.11-38.049 137.485-31.981 0.755 0.181 0.755 0.181 1.488 0.356 3.47 0.824 5.558 1.216 8.022 1.438 28.709 2.59 77.007 33.579 86.976 61.216 9.272 25.839 11.706 53.815 6.387 62.673l-0.028 0.047zM761.561 345.458c2.439-4.061 0.331-28.282-7.593-50.366-7.876-21.835-51.167-49.611-74.7-51.734-3.293-0.297-5.974-0.8-10.059-1.77-0.763-0.182-0.763-0.182-1.511-0.361-21.801-5.213-47.283-0.49-128.881 31.388-42.691 16.685-82.723 44.031-119.762 79.196-21.424 20.34-40.58 42.074-57.67 64.331-6.015 7.834-11.333 15.157-16.379 22.42-1.883 2.711-7.034 10.291-7.619 11.065-3.032 3.998-5.512 7.409-8.867 12.387-5.064 7.513-10.009 15.607-14.636 24.211-14.994 27.877-23.935 55.815-23.935 81.934 0 29.424 7.913 52.768 21.563 72.443 3.13 4.511 6.44 8.656 10.147 12.839 2.227 2.513 9.239 9.979 8.277 8.936 7.955 8.612 17.844 12.538 26.643 12.538 0.119 0 0.119 0 0.238 0 3.083-0.008 5.793-0.138 11.154-0.482 6.195-0.398 8.463-0.512 11.563-0.512 0.936 0 1.535 0.030 3.218 0.138 7.982 0.513 11.116-1.345 17.067-15.532 1.802-4.299 4.124-9.881 7.322-17.591 1.844-4.445 8.723-21.053 9.003-21.728 0.059-0.142 0.059-0.142 0.117-0.283 12.977-31.315 19.041-45.759 20.696-49.051 2.872-5.69 3.312-9.766 1.004-14.324-0.461-0.922-2.861-5.809-3.492-7.048-0.917-1.799-1.702-3.228-2.526-4.577-1.39-2.276-2.942-4.4-4.967-6.741-1.71-1.982-3.064-3.602-6.232-7.427-0.031-0.037-0.031-0.037-0.062-0.075-5.909-7.137-8.54-10.181-11.287-12.894-11.104-10.981-14.313-19.533-6.404-33.008 16.521-28.153 39.27-58.555 68.061-84.028 20.68-18.3 41.265-32.3 62.217-43.408 11.998-6.362 38.14-17.853 35.654-16.619 14.616-7.254 25.195-5.974 34.563 4.685 13.478 15.266 31.843 37.384 38.5 47.319 4.666 6.953 7.223 7.241 18.534 3.167 8.222-2.965 52.736-24.288 81.066-38.322 2.49-1.236 10.173-4.927 9.732-4.713 3.153-1.532 5.16-2.583 6.755-3.557 1.996-1.219 3.069-2.163 3.515-2.893l-0.028 0.047z" />
<glyph unicode="&#xe91e;" glyph-name="youtube" horiz-adv-x="1483" d="M1463.948 742.768c0 119.979-97.938 217.232-218.779 217.232h-1026.39c-120.841 0-218.779-97.252-218.779-217.232v-582.448c0-119.979 97.938-217.232 218.779-217.232h1026.39c120.841 0 218.779 97.252 218.779 217.232v582.448zM585.579 167.441v547.098l418.071-273.549-418.071-273.549z" />
</font>
</defs>
</svg>
