<?xml version="1.0" encoding="UTF-8" standalone="no"?>
<svg width="132px" height="132px" viewBox="0 0 132 132" version="1.1" xmlns="http://www.w3.org/2000/svg" xmlns:xlink="http://www.w3.org/1999/xlink" xmlns:sketch="http://www.bohemiancoding.com/sketch/ns">
    <!-- Generator: Sketch 3.5.1 (25234) - http://www.bohemiancoding.com/sketch -->
    <title>logo</title>
    <desc>Created with Sketch.</desc>
    <defs></defs>
    <g id="Accueil" stroke="none" stroke-width="1" fill="none" fill-rule="evenodd" sketch:type="MSPage">
        <g id="Desktop" sketch:type="MSArtboardGroup" transform="translate(-42.000000, -63.000000)">
            <g id="Menu" sketch:type="MSLayerGroup" transform="translate(0.000000, 52.000000)">
                <g id="logo" transform="translate(33.000000, 0.000000)">
                    <g id="Group">
                        <g id="BG"></g>
                        <g id="Extras" transform="translate(7.420827, 10.288120)" fill="#423E3B" sketch:type="MSShapeGroup">
                            <g id="Txt_bck" transform="translate(1.746077, 92.811974)">
                                <g id="Sur_Un_Baobab_1_">
                                    <path d="M5.04179743,0.67857811 C4.60527817,0.394013096 4.14693295,0.197006548 3.68858773,0.109448082 C3.23024251,0.0218896165 2.77189729,0.0875584659 2.31355207,0.30645463 C1.78972896,0.612909261 1.44051355,1.29148737 1.24407989,2.42974743 C1.22225392,2.62675398 1.13495007,3.34911132 1.02582026,4.61870907 C0.982168331,5.12217025 0.982168331,5.60374181 1.06947218,6.04153414 C1.13495007,6.47932647 1.26590585,6.9171188 1.46233951,7.33302152 C1.65877318,7.72703461 1.83338088,8.07726848 2.00798859,8.33994387 C2.18259629,8.60261927 2.40085592,8.93096352 2.7064194,9.32497661 L3.42667618,10.3100094 C3.57945792,10.5070159 3.75406562,10.8134705 3.99415121,11.2293732 C4.21241084,11.6233863 4.38701854,12.0392891 4.49614836,12.4333022 C4.60527817,12.8273152 4.67075606,13.2651076 4.69258203,13.7466791 C4.69258203,13.7685688 4.69258203,13.8561272 4.73623395,14.2282507 C4.75805991,14.4909261 4.75805991,14.666043 4.75805991,14.7536015 L4.75805991,15.125725 C4.75805991,15.3008419 4.73623395,15.4540692 4.69258203,15.5854069 C4.53980029,16.2420954 4.21241084,16.723667 3.68858773,17.0301216 C3.27389444,17.292797 2.66276748,17.4679139 1.87703281,17.5335828 C1.85520685,17.5335828 1.81155492,17.5335828 1.68059914,17.5554724 C1.59329529,17.577362 1.5278174,17.577362 1.46233951,17.577362 C1.39686163,17.5992516 1.3532097,17.5992516 1.30955777,17.5992516 L1.28773181,17.5992516 C1.06947218,17.4898036 0.960342368,17.2052385 0.916690442,16.7455566 C0.851212553,16.2420954 0.916690442,15.8480823 1.04764622,15.5635173 C1.11312411,15.4321796 1.13495007,15.3227315 1.09129815,15.2351731 C1.06947218,15.1476146 0.982168331,15.0600561 0.873038516,14.9943873 C0.763908702,14.9287184 0.632952924,14.9068288 0.545649073,14.950608 C0.458345221,14.9724977 0.371041369,15.0600561 0.327389444,15.1695042 C0.0873038516,15.6072965 -9.08995101e-16,16.1764266 0.0654778887,16.8331151 C0.15278174,17.6649205 0.458345221,18.1902713 0.982168331,18.3872778 C1.06947218,18.4310571 1.178602,18.4310571 1.28773181,18.4310571 C1.37503566,18.4310571 1.44051355,18.4310571 1.5278174,18.4091674 C1.59329529,18.4091674 1.65877318,18.4091674 1.767903,18.3872778 C1.83338088,18.3653882 1.87703281,18.3653882 1.92068474,18.3653882 C2.85920114,18.2997194 3.60128388,18.0808232 4.12510699,17.7305893 C4.8235378,17.3146866 5.28188302,16.6361085 5.50014265,15.7605239 C5.52196862,15.6291862 5.54379458,15.4759588 5.56562054,15.3446211 C5.5874465,15.1913938 5.5874465,15.0381665 5.5874465,14.8849392 C5.5874465,14.7317119 5.5874465,14.5784846 5.56562054,14.4909261 C5.56562054,14.381478 5.54379458,14.2501403 5.52196862,14.0750234 C5.50014265,13.8999065 5.50014265,13.7904584 5.50014265,13.7028999 C5.47831669,13.1775491 5.39101284,12.6740879 5.26005706,12.214406 C5.12910128,11.754724 4.93266762,11.2950421 4.69258203,10.8353601 C4.43067047,10.3975678 4.2342368,10.0692236 4.10328103,9.85032741 C3.97232525,9.65332086 3.71041369,9.303087 3.36119829,8.86529467 C2.99015692,8.36183349 2.7064194,7.94593078 2.50998573,7.61758653 C2.31355207,7.28924228 2.16077033,6.87333957 2.00798859,6.36987839 C1.85520685,5.8445276 1.81155492,5.29728718 1.85520685,4.72815716 C1.98616262,3.39289055 2.05164051,2.71431244 2.07346648,2.60486436 C2.22624822,1.75116932 2.44450785,1.22581852 2.75007133,1.05070159 C2.96833096,0.941253508 3.23024251,0.897474275 3.55763195,0.963143124 C3.90684736,1.02881197 4.25606277,1.18203929 4.60527817,1.40093545 C4.95449358,1.61983162 5.2382311,1.88250702 5.43466476,2.18896165 C5.63109843,2.47352666 5.69657632,2.73620206 5.65292439,2.95509822 C5.63109843,3.0645463 5.65292439,3.17399439 5.71840228,3.26155285 C5.78388017,3.34911132 5.87118402,3.41478017 6.0021398,3.41478017 C6.11126961,3.43666978 6.22039943,3.41478017 6.30770328,3.34911132 C6.39500713,3.28344247 6.43865906,3.195884 6.46048502,3.0645463 C6.52596291,2.62675398 6.4168331,2.16707203 6.13309558,1.75116932 C5.84935806,1.31337699 5.50014265,0.963143124 5.04179743,0.67857811 L5.04179743,0.67857811 Z" id="Shape"></path>
                                    <path d="M15.6492154,19.4817587 C15.5837375,19.459869 15.5182596,19.459869 15.4527817,19.459869 C15.3654779,19.459869 15.3436519,19.4379794 15.3436519,19.4379794 C15.321826,19.4379794 15.3,19.4160898 15.278174,19.4160898 L15.278174,19.3942002 C15.2563481,19.3285313 15.2126961,19.1534144 15.2563481,18.7156221 C15.278174,18.1246024 15.3,17.8400374 15.3,17.7743686 C15.1472183,15.41029 15.0817404,13.5496726 15.1472183,12.2581852 C15.1472183,12.1049579 15.1690442,11.9079514 15.1908702,11.6890552 C15.1908702,11.6671656 15.2126961,11.6014967 15.2345221,11.3826006 C15.2563481,11.2293732 15.278174,11.1199252 15.278174,11.0323667 C15.3654779,10.4632367 15.3654779,10.0035547 15.278174,9.63143124 L15.278174,9.60954163 L15.278174,9.58765201 L15.2563481,9.50009355 L15.1690442,9.41253508 C15.1253923,9.36875585 15.1035663,9.34686623 15.0599144,9.32497661 C14.8634807,9.25930776 14.710699,9.303087 14.6015692,9.47820393 C14.5579173,9.50009355 14.5360913,9.54387278 14.5142653,9.60954163 C14.5142653,9.65332086 14.4924394,9.69710009 14.4924394,9.78465856 L14.4924394,9.91599626 L14.4706134,9.98166511 L14.4706134,10.0035547 C14.4706134,10.0911132 14.4706134,10.2224509 14.4487874,10.4632367 C14.4269615,10.6383536 14.4269615,10.8353601 14.4051355,10.9885875 C14.3833096,11.1418148 14.3833096,11.3607109 14.3614836,11.6890552 C14.3396576,11.9955098 14.3178317,12.2800748 14.2960057,12.498971 C14.2741797,12.7178672 14.2523538,12.9367633 14.2087019,13.1337699 C14.143224,13.4840037 14.0777461,14.096913 14.0122682,14.9287184 C13.9249643,15.694855 13.8594864,16.2858746 13.7721826,16.6798877 C13.532097,17.9275959 12.964622,18.7812909 12.1352354,19.2190833 C12.0479315,19.2628625 11.9606277,19.3066417 11.8733238,19.350421 C11.764194,19.4160898 11.7205421,19.4379794 11.6987161,19.4379794 L11.5459344,19.4817587 C11.5022825,19.5036483 11.4368046,19.5036483 11.3495007,19.5036483 C11.0657632,19.5255379 10.8256776,19.2190833 10.6728959,18.6499532 C10.4982882,18.0589336 10.3891583,17.1833489 10.3891583,16.0888681 C10.3673324,15.2132834 10.4109843,14.2939196 10.4982882,13.3745557 C10.585592,12.4551918 10.6728959,11.754724 10.7601997,11.2731525 C10.7820257,11.185594 10.7601997,11.0761459 10.6947218,10.9885875 C10.6292439,10.901029 10.5419401,10.8353601 10.4546362,10.8353601 C10.3455064,10.8134705 10.2582026,10.8353601 10.1708987,10.901029 C10.0835949,10.9666978 10.018117,11.0542563 9.99629101,11.1637044 C9.90898716,11.645276 9.82168331,12.3676333 9.73437946,13.3307764 C9.64707561,14.2720299 9.62524964,15.2132834 9.62524964,16.1107577 C9.64707561,17.3146866 9.75620542,18.2559401 9.95263909,18.9126286 C10.2363766,19.8319925 10.7165478,20.3135641 11.3713267,20.3135641 L11.4368046,20.3135641 C11.5677603,20.3135641 11.6987161,20.2916745 11.8078459,20.2478952 C11.9169757,20.204116 12.0042796,20.1822264 12.0697575,20.1603368 C12.1134094,20.1384471 12.2007133,20.0946679 12.3098431,20.0289991 C12.4189729,19.9633302 12.4844508,19.919551 12.5281027,19.8976614 C13.532097,19.3942002 14.1868759,18.4748363 14.5360913,17.1614593 L14.5797432,17.7743686 C14.5797432,17.8181478 14.5579173,18.4091674 14.5360913,18.6280636 C14.4924394,19.1315248 14.5142653,19.4817587 14.6233951,19.7006548 C14.6670471,19.7882133 14.732525,19.8757717 14.7980029,19.9414406 C14.8634807,20.0071094 14.9507846,20.0727783 15.0380884,20.0946679 C15.1253923,20.1384471 15.1908702,20.1603368 15.2563481,20.1603368 C15.3,20.1822264 15.3654779,20.1822264 15.4527817,20.204116 L15.5619116,20.2260056 C15.6710414,20.2478952 15.7801712,20.2260056 15.867475,20.1603368 C15.9547789,20.0946679 16.0202568,20.0071094 16.0420827,19.919551 C16.0639087,19.8101029 16.0420827,19.7225444 15.9766049,19.634986 C15.8238231,19.5693171 15.7583452,19.5036483 15.6492154,19.4817587 L15.6492154,19.4817587 Z" id="Shape"></path>
                                    <path d="M23.2883024,7.63947615 C23.2009986,7.5738073 23.1136947,7.55191768 23.0045649,7.5738073 C22.1751783,7.705145 21.6295292,7.88026193 21.3239658,8.14293732 C20.7128388,8.66828812 20.3636234,9.67521048 20.2763195,11.1637044 C20.2544936,11.4263798 20.2544936,11.7328344 20.2544936,12.0611787 C20.1671897,11.6671656 20.1017118,11.3388213 20.0798859,11.2950421 C20.036234,11.1199252 19.992582,10.5507951 19.9052782,9.58765201 C19.8398003,8.7777362 19.7088445,8.16482694 19.5124108,7.74892423 L19.5124108,7.74892423 C19.403281,7.53002806 19.2068474,7.4424696 18.9885877,7.55191768 C18.8794579,7.59569691 18.7921541,7.68325538 18.7703281,7.77081384 C18.7266762,7.85837231 18.7485021,7.96782039 18.7921541,8.07726848 C18.9449358,8.40561272 19.0540656,8.93096352 19.1195435,9.65332086 C19.2068474,10.6602432 19.2504993,11.2512629 19.2941512,11.4920486 C19.2941512,11.5358279 19.3596291,11.7985033 19.5997147,12.8273152 C19.7306705,13.3964453 19.8179743,13.8342376 19.8616262,14.1406922 C19.8616262,14.1844715 19.9052782,14.5347053 20.036234,16.0013096 C20.0798859,16.4828812 20.1017118,16.8768943 20.1453638,17.1395697 C20.1671897,17.292797 20.1671897,17.4241347 20.1890157,17.5554724 C20.2108417,17.5992516 20.2108417,17.6430309 20.2108417,17.6649205 L20.2108417,17.6868101 C20.2326676,17.752479 20.2326676,17.7962582 20.2544936,17.8181478 C20.2763195,17.861927 20.2981455,17.8838167 20.3199715,17.9057063 C20.3854494,17.9713751 20.4509272,18.037044 20.581883,18.037044 L20.625535,18.037044 C20.7564907,18.037044 20.8437946,17.9713751 20.9310984,17.8838167 C20.9747504,17.8400374 20.9965763,17.7962582 21.0184023,17.7305893 C21.0184023,17.6868101 21.0402282,17.6430309 21.0402282,17.5992516 L21.0402282,17.577362 L21.0402282,17.3803555 C21.0620542,17.2490178 21.0620542,17.1614593 21.0838802,17.1395697 L21.0838802,17.1176801 C21.1057061,17.0739008 21.1057061,17.0520112 21.1057061,17.0301216 L21.1057061,16.9206735 C21.1057061,16.8331151 21.1057061,16.723667 21.1275321,16.5923293 C21.171184,15.8918616 21.171184,15.1038354 21.1275321,14.2063611 C21.1275321,14.1844715 21.1275321,14.0312442 21.0838802,13.352666 C21.0402282,12.8273152 21.0402282,12.4770814 21.0402282,12.3238541 L21.0402282,11.2074836 C21.1275321,9.93788587 21.3894437,9.10608045 21.8259629,8.73395697 C22.0223966,8.55884004 22.4589158,8.42750234 23.1136947,8.33994387 C23.2228245,8.31805426 23.3101284,8.27427502 23.3756063,8.18671656 C23.4410842,8.09915809 23.4629101,8.01159963 23.4410842,7.90215154 C23.4192582,7.79270346 23.3756063,7.705145 23.2883024,7.63947615 L23.2883024,7.63947615 Z" id="Shape"></path>
                                    <path d="M40.6399429,6.34798877 C40.6399429,6.23854069 40.596291,5.99775491 40.2034237,5.99775491 C39.8105563,5.99775491 39.7669044,6.26043031 39.7669044,6.34798877 C39.7669044,6.98278765 39.8105563,8.14293732 39.8760342,9.78465856 C39.9415121,11.4263798 39.9633381,12.8273152 39.9196862,13.9655753 C39.8760342,15.0819457 39.7232525,16.1983162 39.4831669,17.3146866 C39.2867332,18.2121609 38.9593438,18.890739 38.5446505,19.350421 C37.9771755,19.9414406 37.2569187,20.0946679 36.2965763,19.8319925 C35.8164051,19.7006548 35.4235378,19.2628625 35.1616262,18.5623948 C34.9870185,18.1246024 34.8560628,17.4898036 34.7687589,16.6798877 C34.5286733,14.7098223 34.5941512,12.0611787 34.9215407,8.7777362 C34.9433666,8.58072965 35.0088445,8.16482694 35.1179743,7.53002806 C35.2271041,6.98278765 35.292582,6.52310571 35.292582,6.19476146 C35.292582,6.08531338 35.2489301,5.8445276 34.8560628,5.8445276 C34.4631954,5.8445276 34.4195435,6.10720299 34.4195435,6.19476146 C34.4195435,6.50121609 34.3758916,6.9171188 34.2885877,7.39869036 C34.157632,8.05537886 34.0703281,8.47128157 34.0485021,8.69017774 C33.6992867,12.0173994 33.6556348,14.7317119 33.8957204,16.7017774 C34.0048502,17.577362 34.157632,18.2559401 34.3104137,18.7375117 C34.6596291,19.6787652 35.2271041,20.2697848 35.9910128,20.488681 C36.3838802,20.5981291 36.7767475,20.6637979 37.1259629,20.6637979 C37.9335235,20.6637979 38.6319544,20.3792329 39.1776034,19.7882133 C39.7014265,19.2409729 40.0942939,18.4310571 40.3125535,17.4022451 C40.5526391,16.3077643 40.7054208,15.1476146 40.7490728,13.9655753 C40.7927247,12.783536 40.7927247,11.3607109 40.7054208,9.71898971 C40.6617689,8.09915809 40.6399429,6.96089804 40.6399429,6.34798877 L40.6399429,6.34798877 Z" id="Shape"></path>
                                    <path d="M49.3921541,13.1775491 C49.2393723,12.8710945 49.0429387,12.6521983 48.824679,12.498971 C48.5191155,12.2581852 48.1917261,12.1706268 47.8425107,12.1925164 C47.2532097,12.2362956 46.6857347,12.6084191 46.1619116,13.2651076 C45.7908702,13.7466791 45.4198288,14.4033676 45.0487874,15.2351731 C44.8523538,15.6729654 44.6559201,16.1983162 44.4376605,16.7893358 C44.3503566,14.5128157 44.3285307,13.1775491 44.3285307,12.8492049 C44.3285307,12.7397568 44.2848787,12.498971 43.8920114,12.498971 C43.4991441,12.498971 43.4554922,12.7616464 43.4554922,12.8492049 C43.4554922,13.5715622 43.4773181,14.6879326 43.542796,16.1107577 C43.6082739,17.5335828 43.6300999,18.6280636 43.6300999,19.3285313 C43.52097,19.6787652 43.4336662,20.0289991 43.3681883,20.3135641 C43.2808845,20.6200187 43.2372325,20.8826941 43.2154066,21.1015903 L43.2154066,21.3861553 L43.2154066,21.4080449 C43.2372325,21.4737138 43.2590585,21.5393826 43.3027104,21.5831618 C43.3681883,21.6926099 43.4773181,21.7801684 43.6300999,21.802058 C43.8047076,21.8239476 43.9574893,21.7801684 44.0666191,21.6707203 C44.110271,21.6269411 44.153923,21.5831618 44.1757489,21.5393826 C44.2194009,21.4956034 44.2412268,21.4299345 44.2630528,21.3423761 C44.3067047,21.1891487 44.3503566,21.0140318 44.3721826,20.773246 C44.4594864,20.2916745 44.4813124,19.8319925 44.4813124,19.4160898 C44.5249643,19.2847521 44.5686163,19.175304 44.5904422,19.0877456 C44.6122682,19.0220767 44.6777461,18.7375117 44.8305278,18.2559401 C44.9833096,17.7743686 45.1360913,17.292797 45.288873,16.8331151 C45.4416548,16.3734331 45.6162625,15.9137512 45.8126961,15.4978485 C46.1400856,14.7317119 46.489301,14.1188026 46.8385164,13.6810103 C47.2095578,13.1994387 47.5587732,12.9586529 47.9079886,12.9367633 C47.9952924,12.9367633 48.0825963,12.9586529 48.1699001,13.0462114 C48.3008559,13.1556595 48.4318117,13.3088868 48.5627675,13.527783 C48.7810271,13.9217961 48.9338088,14.3158092 48.9774608,14.6441534 C48.9992867,14.9724977 49.0211127,15.3008419 49.0211127,15.6729654 C49.0211127,16.0450889 49.0211127,16.3515435 48.9992867,16.6142189 C48.9774608,16.8550047 48.9556348,17.2271282 48.9119829,17.6868101 C48.868331,18.146492 48.846505,18.4748363 48.824679,18.6718428 C48.8028531,19.0439663 48.8028531,19.6130964 48.868331,20.3792329 C48.9338088,21.1672591 48.9556348,21.7144995 48.9556348,21.9990645 C48.9556348,22.1085126 48.9992867,22.3492984 49.3921541,22.3492984 C49.7850214,22.3492984 49.8286733,22.086623 49.8286733,21.9990645 C49.8286733,21.6926099 49.8068474,21.1453695 49.7413695,20.3135641 C49.6758916,19.634986 49.6540656,19.1096352 49.6977175,18.7156221 C49.7195435,18.4748363 49.7413695,18.146492 49.7631954,17.7305893 C49.8068474,17.2709074 49.8504993,16.8987839 49.8504993,16.6361085 C49.8723252,16.3734331 49.8723252,16.0450889 49.8723252,15.6510758 C49.8723252,15.2570627 49.8504993,14.9068288 49.8286733,14.5784846 C49.8504993,14.096913 49.6758916,13.6372311 49.3921541,13.1775491 L49.3921541,13.1775491 Z" id="Shape"></path>
                                    <path d="M69.2537803,7.705145 L68.9918688,7.705145 C68.2061341,7.705145 67.3767475,7.94593078 66.5691869,8.38372311 C66.6128388,7.92404116 66.7874465,7.0484565 67.071184,5.80074836 L67.071184,4.50926099 L67.071184,4.46548176 C66.3509272,2.21085126 65.2159772,1.07259121 63.6663338,1.07259121 C61.3091298,1.07259121 59.999572,3.08643592 59.7376605,7.0484565 L59.7376605,9.87221703 C61.1126961,19.3285313 62.0512126,20.4011225 62.6405136,20.4011225 L62.6623395,20.4011225 L63.2734665,20.1165575 L63.2734665,20.0289991 C62.4440799,13.8780168 61.8329529,8.38372311 61.5055635,3.7212348 C61.5055635,2.97698784 62.1385164,2.49541628 63.4262482,2.29840973 L64.4084165,2.29840973 C65.5433666,3.02076707 66.1108417,3.8525725 66.1108417,4.75004677 L66.1108417,5.25350795 C66.1108417,6.93900842 65.2596291,8.62450889 63.6008559,10.2662301 L63.57903,10.2881197 L63.57903,11.2950421 L63.7536377,11.185594 C66.525535,9.50009355 68.3807418,8.66828812 69.2974322,8.66828812 C69.4065621,8.66828812 69.450214,8.71206735 69.450214,8.82151543 L69.450214,8.93096352 L69.5593438,8.93096352 C71.8947218,8.93096352 73.6626248,10.4413471 74.7757489,13.4183349 L74.7757489,14.4033676 C73.7935806,17.2052385 71.4363766,18.6280636 67.7696148,18.6280636 L66.2417974,18.6280636 C65.5433666,18.6280636 64.71398,18.2121609 63.7754636,17.3803555 L63.7536377,17.3584659 L63.3389444,17.3584659 L63.3389444,18.0151543 L63.3607703,18.037044 C64.1901569,19.2409729 65.4997147,19.8757717 67.2676177,19.8757717 L67.2676177,19.8757717 L68.7736091,19.6130964 C72.2221113,19.6130964 74.6666191,17.7962582 75.9980029,14.1844715 L75.9980029,14.1406922 C75.9980029,13.3964453 75.8233951,12.6740879 75.4741797,12.0392891 C73.4661912,9.1717493 71.3927247,7.705145 69.2537803,7.705145 L69.2537803,7.705145 Z M61.2654779,13.4183349 L61.2654779,13.5715622 L61.221826,13.5715622 C60.8944365,11.2293732 60.7416548,9.54387278 60.7416548,8.58072965 L60.7416548,6.12909261 L60.7853067,6.12909261 L61.2654779,13.4183349 L61.2654779,13.4183349 Z" id="Shape"></path>
                                    <path d="M89.9229672,20.8170253 C88.5915835,19.9414406 87.6312411,18.890739 87.063766,17.7305893 C85.8196862,12.1487371 85.4486448,12.1487371 85.2740371,12.1487371 L84.9684736,12.1487371 L84.9684736,12.2581852 C84.9684736,12.3895229 84.9029957,12.5865295 84.7720399,12.8492049 L84.750214,12.8929841 L84.7720399,12.9367633 C85.0339515,13.7466791 85.1867332,14.4471469 85.1867332,15.0381665 C85.1867332,17.9494855 84.2918688,19.6130964 82.5457917,20.0289991 C81.214408,19.8538821 80.5378031,19.459869 80.5378031,18.8469598 C80.5378031,16.0013096 81.4981455,14.1188026 83.3970043,13.2213283 L84.2045649,13.4183349 L84.5537803,13.4183349 L84.5537803,13.068101 L84.5319544,13.0462114 C84.2918688,12.5865295 84.0517832,12.3457437 83.7898716,12.3457437 L83.1569187,12.3457437 L83.1132668,12.3457437 C80.8215407,13.4183349 79.6647646,15.4540692 79.6647646,18.3872778 C79.6647646,19.919551 80.5596291,20.7294668 82.3057061,20.8389149 C83.3315264,20.8389149 84.2700428,20.3354537 85.1430813,19.3066417 L85.1649073,19.2847521 L85.1649073,19.2628625 C85.6014265,17.5116932 85.8851641,16.8987839 86.0161198,16.7017774 C86.1034237,18.4091674 87.3475036,20.0727783 89.6610556,21.6707203 L89.6828816,21.6926099 L90.3376605,21.6926099 C90.6868759,21.6926099 90.8833096,21.4956034 90.8833096,21.1453695 L90.8833096,20.5981291 L90.7741797,20.5981291 C90.4467903,20.6200187 90.1630528,20.6856876 89.9229672,20.8170253 L89.9229672,20.8170253 Z" id="Shape"></path>
                                    <path d="M96.6671897,9.80654818 C95.8378031,9.25930776 94.8338088,9.06230122 93.6988588,9.23741815 C93.1750357,9.32497661 92.6075606,9.76276894 91.9527817,10.5726848 C91.2980029,11.3826006 90.8833096,12.1706268 90.7305278,12.8929841 C90.5777461,13.5496726 90.5559201,14.3376988 90.6868759,15.2132834 C90.7960057,16.0888681 91.0360913,16.8768943 91.3853067,17.5554724 C91.8,18.3434986 92.3456491,18.890739 93.000428,19.175304 C93.3278174,19.3285313 93.6770328,19.3942002 94.0699001,19.3942002 C94.2445078,19.3942002 94.4409415,19.3723106 94.6373752,19.350421 C95.2266762,19.3942002 95.7723252,19.175304 96.2961484,18.7375117 C96.7981455,18.321609 97.2346648,17.6868101 97.6275321,16.8768943 C97.9767475,16.1326473 98.2386591,15.3665108 98.4132668,14.5784846 C98.5660485,13.7904584 98.6315264,13.1118803 98.5442225,12.5865295 C98.3477889,11.470159 97.7366619,10.5507951 96.6671897,9.80654818 L96.6671897,9.80654818 Z M94.0917261,18.606174 C93.8079886,18.606174 93.546077,18.5405051 93.2841655,18.4310571 C92.8039943,18.2340505 92.389301,17.7962582 92.0400856,17.1614593 C91.7345221,16.5704397 91.5162625,15.8918616 91.4071327,15.0819457 C91.2980029,14.2939196 91.3198288,13.5934518 91.4726106,13.0024322 C91.6035663,12.4114125 91.9527817,11.754724 92.5420827,11.0104771 C93.0659058,10.3537886 93.4805991,10.0035547 93.8079886,9.95977549 C94.0480742,9.91599626 94.2663338,9.89410664 94.4845934,9.89410664 C95.1393723,9.89410664 95.7286733,10.0692236 96.2306705,10.4194574 C97.103709,11.0323667 97.6275321,11.7766137 97.7366619,12.6521983 C97.8021398,13.0899906 97.7584879,13.6810103 97.6057061,14.4033676 C97.4529244,15.125725 97.2128388,15.8261927 96.9072753,16.5047708 C96.5580599,17.2271282 96.1651926,17.752479 95.7723252,18.1246024 C95.6850214,18.1902713 95.5977175,18.2559401 95.5104137,18.2997194 C95.4231098,18.2559401 95.31398,18.2559401 95.2048502,18.2997194 C94.9865906,18.4091674 94.768331,18.4748363 94.5500713,18.5186155 L94.4191155,18.4748363 C94.2881598,18.4748363 94.17903,18.5186155 94.0917261,18.606174 L94.0917261,18.606174 Z" id="Shape"></path>
                                    <path d="M103.69515,10.3756782 C103.280456,10.1786717 102.865763,10.0692236 102.494722,10.0911132 L102.603852,9.34686623 C102.691155,8.75584659 102.734807,8.25238541 102.756633,7.88026193 C102.778459,7.42057998 102.756633,6.67633302 102.734807,5.69130028 C102.691155,4.77193639 102.66933,4.07146866 102.712981,3.5898971 C102.712981,3.41478017 102.734807,3.15210477 102.778459,2.80187091 C102.822111,2.45163704 102.865763,2.16707203 102.865763,1.94817587 C102.887589,1.7292797 102.865763,1.42282507 102.843937,1.05070159 L102.843937,1.05070159 C102.822111,0.919363891 102.756633,0.831805426 102.66933,0.766136576 C102.582026,0.700467727 102.45107,0.656688494 102.34194,0.67857811 C102.210984,0.700467727 102.12368,0.766136576 102.058203,0.853695042 C101.992725,0.941253508 101.949073,1.07259121 101.970899,1.18203929 C101.992725,1.53227315 102.014551,1.77305893 101.992725,1.92628625 C101.970899,2.07951356 101.949073,2.34218896 101.905421,2.69242283 C101.861769,3.04265669 101.839943,3.3272217 101.818117,3.56800748 C101.796291,4.07146866 101.796291,4.81571562 101.839943,5.77885875 C101.861769,6.72011225 101.883595,7.4424696 101.861769,7.90215154 C101.839943,8.25238541 101.796291,8.69017774 101.730813,9.23741815 C101.708987,9.32497661 101.687161,9.4344247 101.665335,9.60954163 C101.643509,9.78465856 101.621683,9.93788587 101.599857,10.0692236 L101.556205,10.3975678 C101.490728,10.4413471 101.42525,10.4851263 101.381598,10.5289055 C101.163338,10.7040225 101.141512,10.9448082 101.31612,11.1637044 C101.359772,11.2293732 101.403424,11.2731525 101.468902,11.2950421 C101.403424,12.0392891 101.381598,13.5715622 101.381598,15.8699719 C101.381598,16.8987839 101.381598,17.7086997 101.403424,18.2997194 C101.42525,18.9126286 101.447076,19.3942002 101.468902,19.7663237 C101.490728,19.9852198 101.534379,20.1603368 101.534379,20.3135641 C101.556205,20.4011225 101.578031,20.488681 101.599857,20.5324602 C101.643509,20.6637979 101.708987,20.7513564 101.796291,20.7951356 C101.949073,20.9264733 102.167332,20.9921422 102.429244,21.0140318 L102.822111,21.057811 C103.105849,21.1234799 103.36776,21.1453695 103.629672,21.1453695 C104.306277,21.1453695 104.93923,20.948363 105.484879,20.5543499 C106.270613,20.0071094 106.838088,19.2190833 107.143652,18.2559401 C107.842083,16.1107577 107.230956,13.9217961 105.353923,11.754724 C104.851926,11.1199252 104.284451,10.6602432 103.69515,10.3756782 L103.69515,10.3756782 Z M106.357917,17.9932647 C106.096006,18.7812909 105.659486,19.3942002 105.048359,19.8101029 C104.459058,20.2260056 103.760628,20.3354537 103.018545,20.1822264 L102.996719,20.1822264 C102.996719,20.1822264 102.931241,20.1822264 102.494722,20.1384471 C102.494722,20.1384471 102.472896,20.1384471 102.407418,20.1165575 C102.385592,20.0071094 102.363766,19.8757717 102.34194,19.7006548 C102.320114,19.3285313 102.276462,18.8469598 102.276462,18.2778297 C102.254636,17.7086997 102.254636,16.8987839 102.254636,15.8699719 C102.254636,13.4402245 102.298288,11.7985033 102.363766,11.0104771 C102.625678,10.9448082 102.953067,11.0104771 103.280456,11.185594 C103.760628,11.4263798 104.240799,11.8203929 104.699144,12.3457437 C106.379743,14.2501403 106.947218,16.154537 106.357917,17.9932647 L106.357917,17.9932647 Z" id="Shape"></path>
                                    <path d="M122.269044,20.8170253 C120.93766,19.9414406 119.977318,18.890739 119.409843,17.7305893 C118.165763,12.1487371 117.794722,12.1487371 117.620114,12.1487371 L117.314551,12.1487371 L117.314551,12.2581852 C117.314551,12.3895229 117.249073,12.5865295 117.118117,12.8492049 L117.096291,12.8929841 L117.118117,12.9367633 C117.380029,13.7466791 117.53281,14.4471469 117.53281,15.0381665 C117.53281,17.9494855 116.637946,19.6130964 114.891869,20.0289991 C113.560485,19.8538821 112.88388,19.459869 112.88388,18.8469598 C112.88388,16.0013096 113.844223,14.1188026 115.743081,13.2213283 L116.550642,13.4183349 L116.899857,13.4183349 L116.899857,13.068101 L116.878031,13.0462114 C116.637946,12.5865295 116.39786,12.3457437 116.135949,12.3457437 L115.502996,12.3457437 L115.459344,12.3457437 C113.167618,13.4183349 112.010842,15.4540692 112.010842,18.3872778 C112.010842,19.919551 112.905706,20.7294668 114.651783,20.8389149 C115.677603,20.8389149 116.61612,20.3354537 117.489158,19.3066417 L117.510984,19.2847521 L117.510984,19.2628625 C117.947504,17.5116932 118.231241,16.8987839 118.362197,16.7017774 C118.449501,18.4091674 119.693581,20.0727783 122.007133,21.6707203 L122.028959,21.6926099 L122.683738,21.6926099 C123.032953,21.6926099 123.229387,21.4956034 123.229387,21.1453695 L123.229387,20.5981291 L123.098431,20.5981291 C122.792867,20.6200187 122.50913,20.6856876 122.269044,20.8170253 L122.269044,20.8170253 Z" id="Shape"></path>
                                    <path d="M129.406134,15.1913938 L129.384308,15.1913938 C127.856491,15.1913938 126.568759,16.439102 125.586591,18.9126286 L125.542939,18.9126286 L125.542939,7.83648269 L125.783024,6.58877456 L125.215549,6.30420954 L124.626248,6.30420954 L124.626248,12.7178672 C124.626248,16.8987839 124.473466,21.057811 124.167903,25.0855005 L124.167903,25.1949486 L125.106419,25.1949486 L125.106419,24.7571562 L126.154066,24.9760524 L127.310842,24.9760524 C129.558916,24.9760524 130.999429,22.655753 131.610556,18.0808232 L131.610556,17.6211413 C131.58873,16.3515435 130.846648,15.5197381 129.406134,15.1913938 L129.406134,15.1913938 Z M130.650214,17.861927 C130.148217,21.9771749 128.925963,24.0566885 127.027104,24.0566885 L126.328673,24.0566885 C126.02311,24.0566885 125.739372,23.9910196 125.499287,23.8815716 C125.521113,20.5105706 126.503281,17.9713751 128.467618,16.3515435 L129.820827,16.3515435 C130.170043,16.3515435 130.45378,16.8768943 130.650214,17.861927 L130.650214,17.861927 Z" id="Shape"></path>
                                </g>
                                <g id="animation_workshop" transform="translate(19.861626, 29.332086)">
                                    <path d="M2.99015692,4.29036483 L3.09928673,4.29036483 C3.27389444,4.29036483 3.55763195,5.27539757 3.99415121,7.22357343 C4.29971469,7.85837231 4.8235378,8.42750234 5.56562054,8.9090739 C5.69657632,8.84340505 5.84935806,8.79962582 6.02396576,8.79962582 L6.02396576,9.01852198 C6.02396576,9.1717493 5.95848787,9.23741815 5.80570613,9.23741815 L5.45649073,9.23741815 C4.19058488,8.36183349 3.53580599,7.46435921 3.53580599,6.52310571 C3.40485021,6.52310571 3.23024251,7.00467727 2.96833096,7.98971001 C2.50998573,8.5150608 2.02981455,8.7777362 1.50599144,8.7777362 C0.611126961,8.73395697 0.15278174,8.31805426 0.15278174,7.55191768 C0.15278174,6.01964453 0.742082739,4.96894294 1.9425107,4.39981291 L2.26990014,4.39981291 C2.37902996,4.39981291 2.48815977,4.50926099 2.61911555,4.72815716 L2.61911555,4.83760524 L2.50998573,4.83760524 L2.07346648,4.72815716 C1.02582026,5.20972872 0.501997147,6.21665108 0.501997147,7.77081384 C0.501997147,8.12104771 0.873038516,8.36183349 1.61512126,8.44939196 C2.59728959,8.23049579 3.07746077,7.33302152 3.07746077,5.73507951 C3.07746077,5.42862488 3.01198288,5.03461179 2.85920114,4.59681946 C2.96833096,4.46548176 2.99015692,4.35603368 2.99015692,4.29036483 L2.99015692,4.29036483 Z" id="Shape"></path>
                                    <path d="M8.57760342,4.04957905 C9.62524964,4.33414406 10.1490728,5.12217025 10.1490728,6.41365762 L10.1490728,7.20168382 L9.82168331,7.20168382 L9.82168331,6.76389149 C9.82168331,5.49429373 9.45064194,4.70626754 8.68673324,4.39981291 L8.46847361,4.39981291 C7.83552068,4.39981291 7.39900143,5.55996258 7.11526391,7.88026193 L6.78787447,7.88026193 L6.78787447,7.77081384 L6.43865906,5.51618335 L6.54778887,5.51618335 C6.7660485,5.55996258 6.87517832,5.82263798 6.87517832,6.30420954 L6.98430813,6.30420954 C7.31169757,4.79382601 7.83552068,4.04957905 8.57760342,4.04957905 L8.57760342,4.04957905 Z" id="Shape"></path>
                                    <path d="M12.5499287,4.29036483 L12.8773181,4.29036483 L12.8773181,7.66136576 L12.4407989,7.66136576 L12.5499287,6.87333957 L12.5499287,4.29036483 L12.5499287,4.29036483 Z M13.0082739,0.897474275 L13.2265335,0.897474275 C13.3793153,0.919363891 13.4447932,1.00692236 13.4447932,1.11637044 L13.4447932,1.3352666 C13.4447932,1.44471469 13.3356633,1.55416277 13.0955777,1.68550047 L12.8773181,1.68550047 C12.7245364,1.68550047 12.6590585,1.61983162 12.6590585,1.4666043 L12.6590585,1.24770814 C12.6808845,1.13826006 12.7900143,1.00692236 13.0082739,0.897474275 L13.0082739,0.897474275 Z" id="Shape"></path>
                                    <path d="M19.0322397,4.50926099 L19.3814551,4.50926099 C20.2108417,5.10028064 20.603709,6.06342376 20.603709,7.4424696 C20.5382311,7.85837231 20.4945792,8.16482694 20.4945792,8.33994387 L20.3854494,8.33994387 C20.2326676,8.33994387 20.1671897,8.27427502 20.1671897,8.12104771 L20.1671897,6.65444341 C20.1671897,5.97586529 19.8616262,5.38484565 19.2723252,4.85949486 L19.1631954,4.85949486 C18.4647646,4.85949486 17.9409415,5.60374181 17.5917261,7.11412535 L17.4607703,7.11412535 C17.3952924,7.11412535 17.1988588,6.69822264 16.8932953,5.88830683 L16.4349501,5.53807297 C16.1293866,5.53807297 15.9547789,6.36987839 15.867475,8.01159963 L15.867475,8.36183349 L15.6492154,8.36183349 C15.4964337,8.36183349 15.3436519,7.83648269 15.2126961,6.7857811 L15.2126961,5.99775491 L15.5619116,5.99775491 L15.5619116,6.7857811 L15.6710414,6.7857811 C15.8019971,5.73507951 15.9766049,5.20972872 16.2385164,5.20972872 L16.5659058,5.20972872 C16.7405136,5.27539757 17.046077,5.53807297 17.4607703,5.99775491 L17.5699001,5.99775491 C17.5917261,5.36295603 18.0718973,4.85949486 19.0322397,4.50926099 L19.0322397,4.50926099 Z" id="Shape"></path>
                                    <path d="M25.6236805,4.29036483 L25.7328103,4.29036483 C25.907418,4.29036483 26.1911555,5.27539757 26.6276748,7.22357343 C26.9332382,7.85837231 27.4570613,8.42750234 28.1991441,8.9090739 C28.3300999,8.84340505 28.4828816,8.79962582 28.6574893,8.79962582 L28.6574893,9.01852198 C28.6574893,9.1717493 28.5920114,9.23741815 28.4392297,9.23741815 L28.1118402,9.23741815 C26.8459344,8.36183349 26.1911555,7.46435921 26.1911555,6.52310571 C26.0601997,6.52310571 25.885592,7.00467727 25.6236805,7.98971001 C25.1653352,8.5150608 24.6851641,8.7777362 24.1613409,8.7777362 C23.2664765,8.73395697 22.8081312,8.31805426 22.8081312,7.55191768 C22.8081312,6.01964453 23.3974322,4.96894294 24.5978602,4.39981291 L24.9252496,4.39981291 C25.0343795,4.39981291 25.1435093,4.50926099 25.274465,4.72815716 L25.274465,4.83760524 L25.1653352,4.83760524 L24.728816,4.72815716 C23.6811698,5.20972872 23.1573466,6.21665108 23.1573466,7.77081384 C23.1573466,8.12104771 23.528388,8.36183349 24.2704708,8.44939196 C25.2526391,8.23049579 25.7328103,7.33302152 25.7328103,5.73507951 C25.7328103,5.42862488 25.6673324,5.03461179 25.5145506,4.59681946 C25.5800285,4.46548176 25.6236805,4.35603368 25.6236805,4.29036483 L25.6236805,4.29036483 Z" id="Shape"></path>
                                    <path d="M29.5305278,2.80187091 L29.7487874,2.80187091 C29.9015692,2.82376052 29.9670471,2.91131899 29.9670471,3.02076707 L29.9670471,3.91824135 L30.0761769,5.0565014 C31.2547789,4.75004677 31.8877318,4.59681946 31.9968616,4.59681946 C32.1496434,4.61870907 32.2151213,4.70626754 32.2151213,4.81571562 L32.2151213,5.03461179 L32.1059914,5.03461179 L31.8877318,4.9251637 C30.6873039,5.25350795 30.0980029,5.47240412 30.0980029,5.60374181 L30.0980029,8.09915809 C30.0980029,8.25238541 30.032525,8.31805426 29.8797432,8.31805426 L29.7706134,8.31805426 L29.7706134,5.60374181 L28.6574893,5.7131899 L28.4392297,5.7131899 L28.4392297,5.36295603 L28.5483595,5.36295603 L29.6614836,5.25350795 L29.6614836,5.03461179 C29.6396576,4.57492984 29.6178317,3.83068288 29.5305278,2.80187091 L29.5305278,2.80187091 Z" id="Shape"></path>
                                    <path d="M33.568331,4.29036483 L33.8957204,4.29036483 L33.8957204,7.66136576 L33.4592011,7.66136576 L33.568331,6.87333957 L33.568331,4.29036483 L33.568331,4.29036483 Z M34.0048502,0.897474275 L34.2231098,0.897474275 C34.3758916,0.919363891 34.4413695,1.00692236 34.4413695,1.11637044 L34.4413695,1.3352666 C34.4413695,1.44471469 34.3322397,1.55416277 34.0921541,1.68550047 L33.8738944,1.68550047 C33.7211127,1.68550047 33.6556348,1.61983162 33.6556348,1.4666043 L33.6556348,1.24770814 C33.6774608,1.13826006 33.7865906,1.00692236 34.0048502,0.897474275 L34.0048502,0.897474275 Z" id="Shape"></path>
                                    <path d="M38.1736091,3.83068288 L38.7410842,3.83068288 C39.4613409,3.83068288 40.028816,4.35603368 40.4216833,5.40673527 L40.4216833,5.75696913 C40.0724679,7.48624883 39.2867332,8.33994387 38.0644793,8.33994387 C37.2132668,8.33994387 36.5803138,7.705145 36.1437946,6.41365762 C36.7112696,4.68437792 37.3878745,3.83068288 38.1736091,3.83068288 L38.1736091,3.83068288 Z M37.9553495,4.15902713 C37.1477889,4.99083255 36.6457917,5.73507951 36.49301,6.41365762 C36.9295292,7.46435921 37.4970043,7.98971001 38.1736091,7.98971001 C39.439515,7.705145 40.0724679,6.80767072 40.0724679,5.27539757 C39.5922967,4.53115061 39.1339515,4.15902713 38.7192582,4.15902713 C38.4791726,4.31225444 38.2827389,4.37792329 38.1517832,4.37792329 C38.1736091,4.24658559 38.0863053,4.15902713 37.9553495,4.15902713 L37.9553495,4.15902713 Z" id="Shape"></path>
                                    <path d="M44.5249643,4.04957905 C45.5726106,4.33414406 46.0964337,5.12217025 46.0964337,6.41365762 L46.0964337,7.20168382 L45.7690442,7.20168382 L45.7690442,6.76389149 C45.7690442,5.49429373 45.3980029,4.70626754 44.6340942,4.39981291 L44.4158345,4.39981291 C43.7828816,4.39981291 43.3463623,5.55996258 43.0626248,7.88026193 L42.7352354,7.88026193 L42.7352354,7.77081384 L42.38602,5.51618335 L42.4951498,5.51618335 C42.7134094,5.55996258 42.8225392,5.82263798 42.8225392,6.30420954 L42.931669,6.30420954 C43.2372325,4.79382601 43.7610556,4.04957905 44.5249643,4.04957905 L44.5249643,4.04957905 Z" id="Shape"></path>
                                    <path d="M56.0927247,4.04957905 C56.3328103,4.04957905 56.5947218,4.72815716 56.8784593,6.06342376 C56.5510699,7.42057998 55.9399429,8.09915809 55.0887304,8.09915809 C54.9141227,8.09915809 54.5867332,7.88026193 54.0847361,7.42057998 C54.0847361,7.88026193 53.7136947,8.31805426 52.971612,8.7777362 C52.2950071,8.7777362 51.9676177,7.88026193 51.9676177,6.06342376 L51.9676177,4.94705332 L52.4041369,4.94705332 L52.2950071,5.51618335 L52.2950071,5.86641721 C52.360485,7.50813845 52.5569187,8.33994387 52.8624822,8.33994387 L53.0807418,8.33994387 C53.3208274,8.33994387 53.6045649,7.77081384 53.9756063,6.65444341 L54.1938659,6.65444341 C54.1938659,7.1797942 54.5212553,7.55191768 55.1978602,7.77081384 C56.0927247,7.3111319 56.5510699,6.74200187 56.5510699,6.08531338 C56.5510699,5.64752105 56.3109843,5.0565014 55.874465,4.29036483 C55.874465,4.13713751 55.9617689,4.04957905 56.0927247,4.04957905 L56.0927247,4.04957905 Z" id="Shape"></path>
                                    <path d="M60.8071327,3.83068288 L61.3746077,3.83068288 C62.0948645,3.83068288 62.6623395,4.35603368 63.0552068,5.40673527 L63.0552068,5.75696913 C62.7059914,7.48624883 61.9202568,8.33994387 60.6980029,8.33994387 C59.8467903,8.33994387 59.2138374,7.705145 58.7773181,6.41365762 C59.3447932,4.68437792 60.021398,3.83068288 60.8071327,3.83068288 L60.8071327,3.83068288 Z M60.588873,4.15902713 C59.7594864,4.99083255 59.2793153,5.73507951 59.1265335,6.41365762 C59.5630528,7.46435921 60.1305278,7.98971001 60.8071327,7.98971001 C62.0730385,7.705145 62.7059914,6.80767072 62.7059914,5.27539757 C62.2258203,4.53115061 61.767475,4.15902713 61.3527817,4.15902713 C61.1126961,4.31225444 60.9162625,4.37792329 60.7853067,4.37792329 C60.8071327,4.24658559 60.7198288,4.15902713 60.588873,4.15902713 L60.588873,4.15902713 Z" id="Shape"></path>
                                    <path d="M66.8529244,3.37100094 L67.071184,3.37100094 L67.071184,3.69934518 C66.3291013,3.69934518 65.8489301,3.91824135 65.6088445,4.37792329 C65.6743224,5.73507951 65.7179743,6.61066417 65.7179743,6.96089804 L65.6088445,7.53002806 L65.1723252,7.53002806 L65.1723252,7.1797942 L65.3905849,6.85144995 C65.325107,5.49429373 65.2814551,4.61870907 65.2814551,4.26847521 C65.5651926,3.67745557 66.0890157,3.37100094 66.8529244,3.37100094 L66.8529244,3.37100094 Z" id="Shape"></path>
                                    <path d="M68.2934379,0 L68.5116976,0 C68.6644793,0 68.8172611,0.328344247 68.9482168,1.00692236 C68.9045649,1.53227315 68.8172611,1.79494855 68.7299572,1.79494855 C68.7954351,1.94817587 68.839087,2.05762395 68.839087,2.1232928 C68.9045649,5.38484565 68.9482168,7.15790458 68.9482168,7.42057998 L68.7299572,7.53002806 L68.6208274,7.53002806 L68.6208274,7.4424696 C68.5553495,5.1878391 68.5116976,3.87446211 68.5116976,3.50233863 C68.3370899,3.50233863 68.2279601,3.30533209 68.1624822,2.93320861 L68.3807418,1.81683817 C68.3152639,1.16014967 68.271612,0.591019645 68.271612,0.131337699 L68.271612,0 L68.2934379,0 Z M70.9780314,2.69242283 C71.1308131,2.71431244 71.196291,2.77998129 71.196291,2.91131899 C70.1486448,3.89635173 69.5811698,4.48737138 69.5156919,4.70626754 C70.628816,4.70626754 71.196291,4.96894294 71.196291,5.49429373 C71.4145506,6.01964453 71.5455064,6.50121609 71.5455064,6.96089804 L71.196291,6.96089804 C70.9998573,5.69130028 70.6942939,5.0565014 70.3014265,5.0565014 C69.6466476,5.12217025 69.2319544,5.16594949 69.0791726,5.16594949 L69.0791726,4.70626754 C69.2101284,4.39981291 69.8430813,3.74312442 70.9780314,2.69242283 L70.9780314,2.69242283 Z" id="Shape"></path>
                                    <path d="M75.1031384,2.93320861 L75.321398,2.93320861 C75.4741797,2.95509822 75.5396576,3.04265669 75.5396576,3.15210477 L75.5396576,3.26155285 L75.1904422,3.26155285 C74.5574893,3.26155285 74.0336662,3.56800748 73.6189729,4.15902713 L73.6189729,4.48737138 C75.4960057,4.66248831 76.4345221,5.1878391 76.4345221,6.06342376 C76.5,6.06342376 76.5436519,6.21665108 76.5436519,6.52310571 C76.5436519,7.37680075 75.8015692,7.90215154 74.2955777,8.09915809 C73.3134094,7.98971001 72.8332382,7.83648269 72.8332382,7.66136576 L72.8332382,7.4424696 L72.942368,7.4424696 C73.7281027,7.66136576 74.2300999,7.77081384 74.4047076,7.77081384 C75.321398,7.77081384 75.910699,7.3111319 76.1944365,6.41365762 C76.1944365,5.47240412 75.2559201,4.94705332 73.3788873,4.83760524 L73.1606277,4.48737138 C73.2042796,3.67745557 73.8372325,3.15210477 75.1031384,2.93320861 L75.1031384,2.93320861 Z" id="Shape"></path>
                                    <path d="M78.7262482,0.437792329 L78.835378,0.437792329 L78.835378,0.547240412 C79.0536377,2.34218896 79.1627675,3.5898971 79.1627675,4.26847521 L79.1627675,7.07034612 L79.2718973,7.07034612 C79.5992867,5.49429373 80.2758916,4.70626754 81.3017118,4.70626754 L81.9783167,4.70626754 C82.6767475,4.70626754 83.0914408,5.38484565 83.2005706,6.74200187 C83.2660485,7.13601497 83.3097004,7.50813845 83.3097004,7.85837231 L83.3097004,8.53695042 C83.3097004,8.69017774 83.2442225,8.75584659 83.0914408,8.75584659 L82.8731812,8.75584659 L82.982311,8.18671656 L82.982311,7.88026193 C82.8077033,6.19476146 82.5676177,5.29728718 82.3057061,5.1878391 L80.7560628,5.1878391 C80.4286733,5.1878391 79.9048502,6.19476146 79.1845934,8.23049579 L78.857204,8.23049579 L78.857204,8.09915809 C78.857204,7.28924228 78.8135521,6.61066417 78.7480742,6.06342376 C78.8135521,5.27539757 78.857204,4.64059869 78.857204,4.15902713 L78.5079886,0.547240412 L78.7262482,0.437792329 L78.7262482,0.437792329 Z" id="Shape"></path>
                                    <path d="M87.085592,3.83068288 L87.653067,3.83068288 C88.3733238,3.83068288 88.9407989,4.35603368 89.3336662,5.40673527 L89.3336662,5.75696913 C88.9844508,7.48624883 88.1987161,8.33994387 86.9764622,8.33994387 C86.1252496,8.33994387 85.4922967,7.705145 85.0557775,6.41365762 C85.6232525,4.68437792 86.2998573,3.83068288 87.085592,3.83068288 L87.085592,3.83068288 Z M86.8455064,4.15902713 C86.0161198,4.99083255 85.5359486,5.73507951 85.3831669,6.41365762 C85.8196862,7.46435921 86.3871612,7.98971001 87.063766,7.98971001 C88.3296719,7.705145 88.9626248,6.80767072 88.9626248,5.27539757 C88.4824536,4.53115061 88.0241084,4.15902713 87.6094151,4.15902713 C87.3693295,4.31225444 87.1728959,4.37792329 87.0419401,4.37792329 C87.085592,4.24658559 86.9982882,4.15902713 86.8455064,4.15902713 L86.8455064,4.15902713 Z" id="Shape"></path>
                                    <path d="M91.8873039,3.15210477 C92.6512126,3.15210477 93.1968616,4.00579981 93.567903,5.73507951 C93.567903,6.10720299 93.1968616,6.52310571 92.4547789,6.96089804 C92.8258203,8.20860617 93.0877318,9.36875585 93.2405136,10.4632367 L93.0222539,10.4632367 C92.9131241,10.4632367 92.5420827,9.36875585 91.8873039,7.20168382 L91.778174,7.20168382 C91.778174,7.11412535 91.821826,7.00467727 91.8873039,6.87333957 C91.7345221,6.01964453 91.5599144,5.49429373 91.3198288,5.29728718 C91.3634807,3.87446211 91.5599144,3.15210477 91.8873039,3.15210477 L91.8873039,3.15210477 Z M91.9964337,3.50233863 C91.8436519,3.74312442 91.778174,3.96202058 91.778174,4.18091674 L91.778174,4.29036483 C91.778174,4.46548176 91.9746077,5.25350795 92.3456491,6.65444341 C92.9349501,6.34798877 93.2405136,5.93208606 93.2405136,5.40673527 C92.9131241,4.46548176 92.4984308,3.83068288 91.9964337,3.50233863 L91.9964337,3.50233863 Z" id="Shape"></path>
                                </g>
                            </g>
                        </g>
                        <g id="Sur_Un_Baobab" transform="translate(9.385164, 11.382601)" sketch:type="MSShapeGroup">
                            <g id="Arc" transform="translate(12.222539, 0.000000)" fill="#C8C6C5">
                                <path d="M103.455064,35.1766137 C102.909415,33.9070159 67.3330956,-23.8815716 15.2345221,11.4920486 C3.68858773,19.919551 -1.74607703,21.4518241 0.611126961,42.0718428 C1.65877318,51.2435921 3.97232525,64.1584659 7.57360913,70.5940131 C9.40699001,73.8555659 11.6332382,77.05145 14.2305278,80.0503274 C17.4607703,79.1966324 20.4945792,78.9120674 20.6691869,78.9120674 C25.5145506,78.4304958 26.8459344,78.1240412 29.2467903,77.05145 C31.4730385,76.0664172 41.6221113,73.8993452 41.6221113,73.8555659 C27.6971469,70.5721235 15.7583452,46.4059869 21.760485,30.2952292 C24.5542083,22.8089804 29.3340942,15.9356408 35.336234,11.6014967 C35.336234,11.6014967 35.3580599,11.5796071 35.4235378,11.5358279 C35.4017118,11.5577175 35.3580599,11.5796071 35.336234,11.6014967 C35.3798859,11.6014967 51.7493581,1.11637044 77.4385164,15.5416277 C90.1412268,22.6776427 107.776605,45.2896165 93.2405136,62.6043031 C86.9982882,70.0248831 78.1587732,71.8417212 67.8350927,75.4316183 C69.9085592,77.7738073 76.5436519,75.9131899 80.1012839,78.0583723 C84.2482168,80.5756782 93.2623395,81.9985033 98.1950071,83.4651076 C106.052354,72.1481759 110.286591,51.0684752 103.455064,35.1766137 L103.455064,35.1766137 Z M14.3396576,23.1592142 L7.9446505,32.9219832 L4.80171184,23.684565 L14.3396576,23.1592142 L14.3396576,23.1592142 Z M6.43865906,47.5223573 L8.90499287,36.7964453 L18.3774608,45.3115061 L6.43865906,47.5223573 L6.43865906,47.5223573 Z M18.6393723,49.0984097 L18.9012839,51.6813845 L9.16690442,54.8334892 L7.74821683,51.3749298 L18.6393723,49.0984097 L18.6393723,49.0984097 Z M18.0718973,75.4753976 L9.58159772,63.5017774 L24.9907275,64.4430309 L18.0718973,75.4753976 L18.0718973,75.4753976 Z M20.8437946,55.9279701 L22.0005706,58.9268475 L9.79985735,60.6561272 L8.79586305,57.8104771 L20.8437946,55.9279701 L20.8437946,55.9279701 Z M18.268331,20.948363 C18.3774608,20.5543499 9.99629101,19.8538821 8.62125535,19.6787652 C7.63908702,19.5693171 10.607418,17.0520112 10.607418,17.0520112 L20.6691869,19.1534144 L18.268331,20.948363 L18.268331,20.948363 Z M22.7208274,17.3146866 L14.121398,14.4690365 L17.7881598,12.6740879 L24.2922967,16.3953227 L22.7208274,17.3146866 L22.7208274,17.3146866 Z M26.5403709,15.7386342 L21.3457917,11.0542563 L31.1456491,8.58072965 L26.5403709,15.7386342 L26.5403709,15.7386342 Z M33.1536377,8.01159963 L36.6676177,4.13713751 L41.163766,7.50813845 L33.1536377,8.01159963 L33.1536377,8.01159963 Z M42.953495,7.13601497 L40.028816,3.56800748 L42.4296719,2.36407858 L45.3980029,6.65444341 L42.953495,7.13601497 L42.953495,7.13601497 Z M48.6064194,5.64752105 L46.511127,1.8606174 L49.0211127,1.44471469 L51.1164051,5.86641721 L48.6064194,5.64752105 L48.6064194,5.64752105 Z M105.222967,46.2746492 L100.202996,46.2746492 L99.7228245,43.7573433 L104.742796,43.4508887 L105.222967,46.2746492 L105.222967,46.2746492 Z M104.131669,40.7584659 L99.1990014,41.6997194 L99.7228245,36.752666 L104.131669,40.7584659 L104.131669,40.7584659 Z M53.4299572,6.08531338 L52.1640514,2.07951356 L59.2793153,5.64752105 L53.4299572,6.08531338 L53.4299572,6.08531338 Z M65.7834522,8.38372311 L61.178174,5.64752105 L66.6346648,5.23161833 L65.7834522,8.38372311 L65.7834522,8.38372311 Z M67.2457917,9.65332086 L69.3410842,6.08531338 L70.8034237,6.9171188 L68.7081312,9.23741815 L67.2457917,9.65332086 L67.2457917,9.65332086 Z M70.8034237,10.2881197 L73.1169757,8.18671656 L74.7975749,9.23741815 L72.0693295,10.7040225 L70.8034237,10.2881197 L70.8034237,10.2881197 Z M73.7499287,11.9517306 L76.478174,10.0692236 L79.2064194,13.0024322 L73.7499287,11.9517306 L73.7499287,11.9517306 Z M80.2322397,14.0531338 L84.0081312,15.1038354 L82.1310984,16.5704397 L80.2322397,14.0531338 L80.2322397,14.0531338 Z M83.3751783,18.0589336 L85.6887304,16.3734331 L86.7363766,17.6430309 L84.8593438,18.9126286 L83.3751783,18.0589336 L83.3751783,18.0589336 Z M85.90699,19.9414406 C85.90699,19.9414406 86.0815977,19.8538821 86.3653352,19.7225444 C87.1292439,19.3723106 88.6352354,18.6718428 88.6352354,18.6718428 L89.2681883,19.9414406 L86.9546362,20.9921422 L85.90699,19.9414406 L85.90699,19.9414406 Z M90.7087019,21.2110384 L92.389301,23.7283442 L88.1987161,22.4587465 L90.7087019,21.2110384 L90.7087019,21.2110384 Z M92.389301,24.997942 L95.5322397,26.4645463 L92.8039943,27.9311506 L92.389301,24.997942 L92.389301,24.997942 Z M94.0699001,29.2007484 L97.2128388,27.9311506 L97.9985735,29.0256314 L94.7028531,30.1201123 L94.0699001,29.2007484 L94.0699001,29.2007484 Z M95.1611983,31.0832554 L98.7188302,29.8136576 L99.0898716,30.9081384 L96.2088445,31.95884 L95.1611983,31.0832554 L95.1611983,31.0832554 Z M96.3834522,33.2941066 L99.7446505,32.133957 L99.5263909,35.5049579 L96.3834522,33.2941066 L96.3834522,33.2941066 Z M82.9168331,77.3579046 C82.9168331,77.3579046 86.6490728,72.8486436 87.2601997,73.1550982 C87.8713267,73.4615529 96.9509272,79.0871843 96.9509272,79.0871843 L82.9168331,77.3579046 L82.9168331,77.3579046 Z M98.6751783,77.62058 L87.1510699,71.053695 L90.7087019,69.7403181 L100.355777,74.6217025 L98.6751783,77.62058 L98.6751783,77.62058 Z M100.835949,71.9073901 L92.4984308,68.1861553 L94.0699001,65.975304 L102.080029,69.2806361 L100.835949,71.9073901 L100.835949,71.9073901 Z M95.4885877,63.8739008 L100.508559,59.9775491 L103.345934,66.9165575 L95.4885877,63.8739008 L95.4885877,63.8739008 Z M101.141512,58.2482694 L99.5700428,52.7320861 L104.851926,55.35884 L101.141512,58.2482694 L101.141512,58.2482694 Z M100.617689,50.3023386 L100.050214,47.9820393 L105.397575,49.0765201 L105.244793,52.0753976 L100.617689,50.3023386 L100.617689,50.3023386 Z" id="Shape"></path>
                            </g>
                            <path d="M81.9346648,21.7801684 C81.9128388,25.1730589 77.678602,24.8447147 74.4483595,25.4576239 C73.6189729,25.6108513 70.6724679,26.5302152 70.2577746,26.6615529 C70.1268188,27.0774556 70.1486448,29.0256314 70.039515,29.4415341 C69.9958631,29.7042095 74.164622,25.2387278 74.12097,25.5014032 C74.0773181,25.8297474 70.4760342,31.0394761 70.60699,32.4841908 C70.9562054,36.2492049 71.6764622,37.6939196 78.0496434,43.2538821 C83.4624822,42.0937325 86.6490728,35.2203929 87.0201141,32.8782039 C86.3653352,32.987652 81.4981455,31.8931712 81.236234,31.5429373 C82.0656205,30.4922357 82.982311,31.3240412 82.960485,30.7111319 C82.9386591,30.0982226 83.8771755,29.2445276 84.5319544,28.9818522 C85.1867332,28.7191768 87.5221113,28.5659495 87.5439372,28.5002806 C87.5439372,28.4127222 86.2562054,27.9749298 84.5974322,28.0405987 C85.2085592,26.880449 87.1510699,26.6396632 91.0360913,26.311319 C92.367475,26.2018709 93.4369472,29.5947615 94.5937233,29.5728718 C95.7504993,29.5509822 96.1433666,32.4404116 95.3794579,32.6811974 C94.7028531,33.1627689 89.8574893,32.9438728 88.0022825,32.987652 C87.6094151,34.4104771 87.107418,36.7964453 86.1689016,38.7665108 C85.1867332,40.8460243 84.4446505,43.4727783 84.4446505,45.5960711 C84.4228245,48.5073901 84.6192582,48.4636109 85.1212553,50.5869036 C86.3653352,51.0684752 88.7007133,52.5788587 91.188873,51.9440599 C92.4766049,51.6157156 93.1750357,50.5431244 94.5500713,49.5362021 C93.3496434,49.711319 88.4169757,47.8507016 90.7741797,45.0707203 C92.0182596,43.6260056 95.8378031,44.7642657 96.5580599,43.6478952 C97.7584879,41.8091674 102.472896,45.4428438 103.760628,47.084565 C104.022539,47.4129093 103.891583,47.1721235 102.494722,47.1940131 C101.20699,47.1940131 100.399429,47.3910196 100.399429,47.5004677 C100.945078,47.544247 101.861769,47.5880262 102.691155,47.6974743 C104.50271,47.9601497 104.8301,47.9820393 104.633666,48.7481759 C103.58602,51.0465856 102.734807,50.9371375 101.599857,50.6963517 C100.464907,50.4555659 98.0422254,50.4555659 95.8814551,50.5869036 C94.5064194,51.1341441 93.4587732,53.1260992 92.3238231,54.0016838 C92.1492154,54.0892423 84.0954351,57.6572498 84.2045649,57.4602432 C83.8990014,57.985594 82.8513552,65.8220767 81.803709,68.602058 C79.8611983,73.7242283 77.3948645,74.3152479 77.9841655,75.0157156 C80.035806,77.7738073 83.0041369,77.1390084 87.6312411,77.9489242 C90.1630528,78.4086062 91.7126961,79.4593078 93.7643367,80.2692236 C95.2921541,80.6632367 96.7981455,81.0353601 98.3259629,81.4293732 C98.3041369,81.5388213 98.282311,81.6482694 98.282311,81.7358279 C96.1215407,82.8084191 91.3853067,80.8602432 89.1154066,80.4662301 C88.7007133,80.4662301 83.8771755,80.5756782 81.8910128,80.6194574 C80.1012839,80.9040225 77.5912981,81.2104771 75.7142653,80.8383536 C74.1864479,80.5100094 69.6684736,78.6712816 68.2279601,79.7438728 C67.0275321,80.6194574 64.6485021,82.129841 66.3509272,82.8521983 C67.3112696,83.268101 68.2934379,85.5665108 68.1406562,86.0480823 C68.3152639,85.7854069 68.0533524,86.7047708 67.0493581,86.0918616 C66.4164051,85.7197381 62.356776,82.8740879 62.0293866,82.1517306 C61.5710414,81.1229186 61.8984308,78.6931712 60.7634807,78.3648269 C61.0253923,78.4304958 52.971612,79.5249766 54.4776034,79.3060804 C51.203709,79.8095416 48.9119829,78.0802619 45.9436519,78.6275023 C44.6340942,78.8682881 40.9455064,80.1816651 39.8105563,79.6782039 C39.8542083,79.3498597 39.9196862,79.3498597 40.0724679,79.1528531 C42.1459344,78.2772685 44.0011412,77.05145 46.6202568,76.5260992 C48.4972896,76.1539757 50.8544936,76.6574369 52.6005706,76.1539757 C55.1542083,75.4097287 55.8526391,73.5053321 59.2574893,73.4834425 C58.1880171,69.4119738 56.9439372,65.0997194 57.8606277,60.5685688 C58.5372325,55.7309635 59.3229672,54.4175865 59.6285307,51.5719364 C58.4281027,49.6456501 56.507418,46.2089804 54.0192582,44.3264733 C53.9537803,44.3264733 53.6700428,44.5891487 53.6045649,44.5891487 C53.2771755,45.0488307 52.4696148,45.4647334 52.2950071,45.8587465 C51.8803138,46.7343312 52.382311,48.3103835 51.6184023,48.8576239 C51.181883,48.8576239 50.003281,48.2228251 49.6758916,48.0258185 C49.435806,47.2815716 49.7850214,47.2815716 50.6580599,47.2377923 C50.636234,46.7124415 50.6580599,45.9025257 51.0509272,45.1801684 C50.8981455,45.0050514 50.7453638,44.8299345 50.5707561,44.6548176 C50.3524964,44.2826941 50.7453638,43.5384471 50.8763195,43.0787652 C50.8326676,43.034986 50.8108417,43.0130964 50.7671897,42.9693171 C50.4616262,43.3633302 50.1342368,43.7792329 49.8286733,44.173246 C49.5885877,44.2389149 49.457632,44.173246 49.1957204,44.1294668 C48.868331,44.632928 48.5845934,45.1144995 48.5191155,47.5004677 C48.4318117,48.1352666 46.2928673,47.1064546 46.2710414,46.7124415 C46.2273894,46.1870907 46.5766049,46.0995323 47.3186876,45.9681946 C47.2968616,44.8737138 47.3405136,44.2826941 47.689729,43.5603368 C47.6024251,43.1663237 47.5151213,42.6409729 47.4278174,42.2469598 C47.5151213,41.546492 47.9298146,41.2181478 48.3226819,40.6271282 C48.1262482,40.1893358 46.489301,39.2043031 46.1837375,39.0510758 C45.310699,39.5983162 45.7472183,40.7146866 45.1360913,40.8460243 C44.8960057,40.692797 44.3721826,40.5614593 44.0447932,40.4301216 C43.2590585,41.2181478 43.8265335,43.4946679 43.6737518,43.7354537 C43.52097,43.9762395 41.0109843,44.4359214 41.0546362,43.6260056 C41.1419401,43.3414406 41.5129815,43.1006548 42.0586305,42.8817587 C42.1241084,42.5971936 41.8840228,41.5683817 42.2768902,40.2112254 C42.364194,39.9266604 41.9276748,39.9704397 41.9713267,39.7296539 C42.0586305,39.0291862 42.5388017,38.1536015 42.5388017,38.1536015 C42.38602,38.0222638 42.2987161,38.0441534 42.1241084,38.0003742 C41.8621969,37.9347053 41.0982882,38.8540692 40.6617689,39.094855 C40.3780314,39.2480823 40.1161198,39.1167446 40.1379458,39.094855 C38.8938659,40.0579981 39.5268188,42.4877456 39.2430813,42.5534144 C37.4970043,43.1006548 36.49301,42.2688494 36.6676177,41.9186155 C36.8422254,41.8091674 37.1041369,41.3275959 37.8243937,41.3932647 C37.9335235,40.408232 37.8898716,39.2261927 38.5009986,38.1973807 C38.6537803,37.9565949 37.8680456,37.6720299 37.9771755,37.4093545 C38.4136947,36.3586529 38.8720399,35.614406 40.028816,35.045276 C37.1477889,32.7687558 37.5843081,31.95884 34.746933,29.6604303 C33.3064194,30.645463 27.6971469,31.6961646 26.7804565,30.645463 C25.5363766,29.222638 26.5840228,25.9173059 28.5047076,26.3988775 C30.5126961,26.880449 34.9433666,26.3988775 34.9433666,26.3988775 C34.9433666,26.3988775 27.4788873,26.6177736 29.6614836,24.144247 C30.578174,23.0935454 31.189301,22.5244153 32.2369472,22.4149673 C34.2885877,22.2398503 34.703281,22.7652011 35.1398003,22.8527596 C35.5763195,22.9403181 35.9910128,22.9184284 36.2092725,22.8089804 C36.6239658,22.6119738 37.9116976,22.4149673 38.6756063,24.428812 C38.9811698,25.2387278 39.8542083,27.4933583 39.0466476,28.478391 C37.2350927,29.0913003 36.2529244,29.0913003 36.5366619,29.4853134 C38.0644793,31.6304958 39.9851641,32.5498597 41.0764622,33.3159963 C41.753067,32.1996258 44.2194009,30.25145 45.7472183,29.1569691 C43.8920114,28.3470533 43.6300999,27.0774556 43.2372325,25.7859682 C42.5169757,23.4656688 43.9574893,22.3274088 44.5904422,20.7513564 C44.721398,20.7513564 44.7868759,19.8538821 44.8960057,19.8538821 C45.2015692,20.2916745 45.5071327,20.7294668 46.2492154,20.7513564 C46.467475,20.5105706 46.6639087,20.2697848 46.8821683,20.0071094 C47.2750357,20.3135641 47.0131241,20.5324602 47.4059914,20.8389149 C47.9079886,20.9921422 48.9338088,20.9045837 49.2830243,21.1453695 C51.0945792,22.3930776 51.4656205,25.1949486 50.636234,27.5590271 C50.3524964,28.4127222 49.5667618,29.0694107 49.3266762,29.8793265 C49.1084165,30.645463 49.6758916,32.0245089 49.435806,33.0752105 C49.1520685,34.3666978 48.7373752,35.8114125 48.4972896,37.1685688 C49.0211127,37.5406922 49.2175464,37.6939196 49.8068474,37.9128157 C51.3783167,36.9058934 53.3863053,34.5418148 54.6740371,33.556782 C53.8009986,33.3816651 52.1422254,31.4334892 52.4696148,29.2007484 C52.6878745,27.7560337 52.8188302,27.4057998 53.560913,26.3550982 C54.0410842,25.6984097 56.0708987,25.2606174 57.2276748,25.3043966 C60.1523538,25.4357343 61.2,30.0106642 60.2614836,33.0314312 C59.8686163,34.3229186 59.3884451,36.8621141 61.0472183,37.0153414 C61.2436519,36.8840037 62.0075606,36.4462114 62.0512126,36.3367633 C62.0948645,36.2054256 61.8547789,35.9646399 61.789301,35.9208606 C61.7238231,35.8551918 60.8944365,36.4462114 60.8944365,36.4462114 C60.8944365,36.4462114 60.6543509,36.0303087 60.6761769,35.9646399 C60.6980029,35.898971 60.9817404,35.1109448 61.0908702,35.0233863 C61.1563481,34.9577175 62.2039943,34.6293732 62.356776,34.7607109 C62.4877318,34.870159 62.8151213,35.614406 62.9242511,36.2273152 C63.0988588,37.1028999 62.5750357,38.7008419 61.0908702,39.0729654 C60.1741797,39.0729654 58.9082739,38.7008419 58.3626248,38.066043 C57.9915835,37.6501403 58.0570613,37.6939196 57.5332382,36.7964453 C57.2495007,38.3724977 56.1145506,39.2480823 56.0708987,40.9554724 C59.8467903,42.8379794 61.7019971,43.0568756 63.2952924,43.1006548 C68.6208274,41.3713751 66.0671897,33.3378859 69.7994294,26.7053321 C68.0097004,27.4276894 67.3549215,24.9322732 65.5651926,25.0198316 C63.1206847,25.1511693 61.811127,21.6707203 63.7318117,21.0797007 C65.6524964,20.2697848 70.7597718,20.0289991 70.7597718,20.0289991 C70.7597718,20.0289991 67.8787447,19.350421 65.1068474,19.9852198 C63.7099857,20.2916745 65.1723252,19.0001871 65.4124108,18.8250702 C67.5295292,17.4460243 68.7954351,18.1246024 72.4840228,18.2778297 C75.0158345,17.8400374 79.2718973,17.4460243 80.603281,19.6787652 C81.2580599,20.773246 82.1529244,21.232928 78.3988588,21.2548176 C77.9841655,21.2548176 81.1271041,22.0428438 81.9346648,21.7801684 L81.9346648,21.7801684 Z" id="Boabab" fill="#423E3B"></path>
                        </g>
                    </g>
                </g>
            </g>
        </g>
    </g>
</svg>